<svg width="71" height="80" viewBox="0 0 71 80" fill="none" xmlns="http://www.w3.org/2000/svg">
<g clip-path="url(#clip0_709_2)">
<path d="M70.32 52.9201C70.32 55.5075 68.5643 58.8004 66.4172 60.2376L39.0628 78.537C36.9157 79.9718 33.4043 79.9718 31.2572 78.537L3.90276 60.2376C1.75566 58.8004 0 55.5098 0 52.9201V27.0516C0 24.4643 1.75566 21.1714 3.90276 19.7342L31.2572 1.43479C33.4043 6.6983e-06 36.9157 6.6983e-06 39.0628 1.43479L66.4172 19.7342C68.5643 21.1714 70.32 24.462 70.32 27.0516V52.9201Z" fill="#C94E4B"/>
<path d="M47.089 43.0036C41.4142 36.0367 30.0106 35.665 23.8014 42.0816C20.5455 45.4475 19.0407 49.6907 21.8629 53.8139C24.0803 57.0551 26.7384 58.1747 30.5146 57.2198C31.6936 56.9234 32.9054 56.5824 34.2579 56.5824H34.9189C36.2175 56.7188 37.3708 57.2104 38.4537 57.6573C39.1616 57.9489 39.8859 58.2453 40.6453 58.3747C42.3072 58.6781 44.091 57.7678 45.4623 56.8999C50.6753 53.5952 50.8628 47.6349 47.089 43.0036ZM26.5602 31.1043C27.5939 31.6077 28.7472 31.9064 29.8958 31.9511C34.9564 31.9511 36.316 15.872 30.3505 16.8811C27.4369 17.3727 25.3343 20.842 24.1108 23.2412C22.4629 26.4801 22.9833 29.3661 26.5602 31.1043ZM25.114 36.2672C24.8468 33.3318 19.9455 26.7341 16.4787 29.1732C12.9439 31.8617 13.3659 39.3485 17.2616 41.6535C20.0158 43.2812 24.8351 38.9815 25.114 36.2672C25.039 35.4628 24.9148 38.1865 25.114 36.2672ZM39.117 32.3744C41.9416 32.7955 46.5944 31.1161 46.7233 27.6961C46.7233 24.4643 42.9331 16.0908 38.6975 17.6549C34.633 18.9627 34.715 31.7206 39.117 32.3744ZM56.2283 34.1903C56.0712 32.3533 55.2578 30.6433 53.91 29.3873C52.0419 27.8019 49.4588 30.0506 48.1954 31.3654C45.7904 33.8633 43.8754 36.7376 46.5428 39.6966C47.8414 41.1384 50.4222 43.2083 52.5341 42.3568C55.3141 41.2395 56.458 36.8529 56.2283 34.1903Z" fill="white"/>
<path d="M35.16 2.70962C36.1656 2.70962 37.1149 2.95895 37.7618 3.39174L65.1163 21.6912C66.6141 22.6932 67.976 25.2475 67.976 27.0516V52.9201C67.976 54.7242 66.6141 57.2786 65.1187 58.2806L37.7642 76.58C37.1172 77.0128 36.1679 77.2621 35.1623 77.2621C34.1568 77.2621 33.2074 77.0128 32.5605 76.58L5.20602 58.2806C3.70586 57.2786 2.344 54.7242 2.344 52.9201V27.0516C2.344 25.2475 3.70586 22.6932 5.20134 21.6912L32.5558 3.39174C33.2051 2.95895 34.1544 2.70962 35.16 2.70962ZM35.16 0.357513C33.7466 0.357513 32.3308 0.717386 31.2572 1.43478L3.90276 19.7342C1.75566 21.1713 0 24.4619 0 27.0516V52.9201C0 55.5075 1.75566 58.8004 3.90276 60.2375L31.2572 78.537C32.3308 79.2544 33.7442 79.6142 35.16 79.6142C36.5758 79.6142 37.9892 79.2544 39.0628 78.537L66.4172 60.2375C68.5643 58.8004 70.32 55.5098 70.32 52.9201V27.0516C70.32 24.4643 68.5643 21.1713 66.4172 19.7342L39.0628 1.43478C37.9892 0.717386 36.5734 0.357513 35.16 0.357513Z" fill="#C94E4B"/>
<path d="M57.8714 51.1584C54.8711 51.1584 52.417 52.2874 50.6707 54.329C49.7589 52.3438 47.8673 51.4101 45.9733 51.4101C44.799 51.4101 43.6457 51.8311 42.4432 52.6967L38.3506 55.7003C36.9419 56.7517 36.2363 58.0242 36.2363 59.4896C36.2363 61.964 38.142 63.9021 40.5751 63.9021C40.997 63.9021 41.4189 63.8386 41.8291 63.7187V71.6476C41.8291 75.0864 44.2692 76.6529 46.5359 76.6529C48.24 76.6529 50.0401 75.7662 50.8301 73.8657C52.5646 75.8156 54.9555 76.9046 57.8714 76.9046C64.1041 76.9046 67.9764 71.951 67.9764 63.975C67.9764 56.0696 64.1041 51.1584 57.8714 51.1584Z" fill="#C94E4B"/>
<path d="M45.9731 53.7622C45.4128 53.7622 44.7096 53.9598 43.8095 54.6066L39.7333 57.5985C38.8637 58.2477 38.5801 58.8686 38.5801 59.4896C38.5801 60.6727 39.4544 61.55 40.5748 61.55C40.9991 61.55 41.5312 61.4066 42.0375 61.0114L44.1729 59.3485V71.6477C44.1729 73.9316 45.7762 74.2985 46.5356 74.2985C47.2951 74.2985 48.8984 73.9316 48.8984 71.6477V57.0904C48.8984 54.1856 46.9857 53.7622 45.9731 53.7622ZM57.8712 53.5082C52.2222 53.5082 50.0563 58.3324 50.0563 63.9727C50.0563 69.6437 52.2222 74.5525 57.8712 74.5525C63.4945 74.5525 65.6322 69.6437 65.6322 63.9727C65.6322 58.3324 63.4945 53.5082 57.8712 53.5082ZM57.8712 70.4904C55.3725 70.4904 54.892 66.5389 54.892 63.9727C54.892 61.463 55.3725 57.5115 57.8712 57.5115C60.3488 57.5115 60.7965 61.463 60.7965 63.9727C60.7965 66.5389 60.3488 70.4904 57.8712 70.4904Z" fill="white"/>
</g>
<defs>
<clipPath id="clip0_709_2">
<rect width="70.32" height="79.9718" fill="white"/>
</clipPath>
</defs>
</svg>
