<svg width="14" height="14" viewBox="0 0 14 14" fill="none" xmlns="http://www.w3.org/2000/svg">
<g clip-path="url(#clip0_4805_363145)">
<path d="M6.92358 0.620704C6.72123 2.0043 6.56264 4.16992 6.56264 5.55625C6.56264 5.86523 6.55444 5.98555 6.52983 5.99375C6.51069 6.00195 6.34115 5.84609 6.15248 5.65195C5.72865 5.21172 5.38686 4.90273 4.9849 4.60195C4.68139 4.375 4.00873 3.9375 3.96225 3.9375C3.91576 3.9375 3.93764 4.00586 4.05522 4.23828C4.40795 4.93555 5.03959 5.69844 5.75873 6.2918C5.89272 6.40664 5.99936 6.51328 5.99389 6.52969C5.98569 6.5543 5.86537 6.5625 5.57006 6.5625C4.26303 6.5625 2.04272 6.72109 0.73842 6.90703C0.251701 6.97539 0.197013 6.98633 0.221623 7.01094C0.243498 7.03281 1.26889 7.16953 1.90053 7.23242C3.02162 7.34453 4.67319 7.4375 5.57006 7.4375C5.86811 7.4375 5.98569 7.4457 5.99389 7.47031C6.00209 7.48945 5.84623 7.65898 5.65209 7.84766C5.21186 8.27148 4.90287 8.61328 4.60209 9.01523C4.37514 9.31875 3.93764 9.99141 3.93764 10.0379C3.93764 10.0871 4.0142 10.0598 4.27397 9.92578C4.95483 9.57578 5.70951 8.94961 6.29194 8.24141C6.40678 8.10742 6.51342 8.00078 6.52983 8.00625C6.55444 8.01445 6.56264 8.1375 6.56264 8.44375C6.56264 9.50195 6.68569 11.4789 6.8224 12.6328C6.89076 13.1988 6.981 13.7812 7.00014 13.7812C7.03295 13.7812 7.18061 12.6957 7.2599 11.8535C7.35287 10.8609 7.43764 9.23125 7.43764 8.44375C7.43764 8.14023 7.44584 8.01445 7.47045 8.00625C7.48686 8.00078 7.681 8.17852 7.89975 8.40273C8.31537 8.8293 8.76108 9.21758 9.16576 9.51016C9.42553 9.69609 10.0025 10.0625 10.0408 10.0625C10.0845 10.0625 10.0599 9.9832 9.93139 9.73164C9.58686 9.05898 8.94975 8.29063 8.24154 7.7082C8.10756 7.59336 8.00092 7.48672 8.00639 7.47031C8.01459 7.4457 8.1349 7.4375 8.43022 7.4375C9.21498 7.4375 10.6013 7.36641 11.6896 7.2707C12.6165 7.19141 13.7814 7.03828 13.7814 7C13.7814 6.96172 12.6165 6.80859 11.6896 6.7293C10.6013 6.63359 9.21498 6.5625 8.43022 6.5625C8.13764 6.5625 8.01459 6.5543 8.00639 6.52969C8.00092 6.51328 8.17865 6.31914 8.40287 6.10039C8.85951 5.65469 9.21225 5.24727 9.53217 4.79883C9.79194 4.43516 10.0763 3.97031 10.0544 3.9457C10.0271 3.92109 9.7728 4.03867 9.46928 4.21641C8.82397 4.59922 8.21694 5.13789 7.63998 5.84063C7.56342 5.93086 7.48959 6.00195 7.47045 5.99375C7.44584 5.98555 7.43764 5.8625 7.43764 5.55625C7.43764 4.76875 7.35287 3.13906 7.2599 2.14648C7.18061 1.3043 7.03295 0.21875 7.00014 0.21875C6.9892 0.21875 6.95639 0.399219 6.92358 0.620704Z" fill="url(#paint0_radial_4805_363145)"/>
</g>
<defs>
<radialGradient id="paint0_radial_4805_363145" cx="0" cy="0" r="1" gradientUnits="userSpaceOnUse" gradientTransform="translate(6.99909 7) rotate(-90) scale(6.78125)">
<stop offset="0.264423" stop-color="#FB9A3E"/>
<stop offset="1" stop-color="#FF5900"/>
</radialGradient>
<clipPath id="clip0_4805_363145">
<rect width="14" height="14" fill="white"/>
</clipPath>
</defs>
</svg>
