<svg width="40" height="40" viewBox="0 0 40 40" fill="none" xmlns="http://www.w3.org/2000/svg">
<path d="M10.9767 3.79688C9.31263 4.02344 7.44545 4.53125 5.99232 5.16406C4.7892 5.6875 4.64076 5.90625 4.71888 7.125C4.77357 8.10938 4.99232 9.44531 5.27357 10.5469C6.20326 14.2266 8.44545 17.7734 11.3283 20.1641C12.9298 21.4844 13.3986 21.7109 14.0079 21.4531L14.297 21.3359L14.4142 21.7578C14.5783 22.3125 14.8439 22.5391 15.8673 22.9844C18.2189 24.0156 20.7189 24.5312 23.3439 24.5312C25.7814 24.5312 28.1329 24.0859 30.3829 23.1875L30.9611 22.9609L31.5548 23.0781C32.4923 23.2656 33.8829 23.4375 34.6251 23.4609C35.2033 23.4766 35.3283 23.4531 35.5236 23.3125C36.0704 22.9062 36.2423 22.2812 35.9533 21.7188C35.7501 21.3047 35.4064 21.1172 34.7501 21.0625C33.7736 20.9766 32.2111 20.7656 32.1173 20.7109C32.0704 20.6797 31.9923 20.3594 31.9454 19.9922C31.6408 17.5156 30.6876 14.7891 29.3673 12.6016C28.2736 10.7891 26.1329 8.39062 25.2579 7.99219C24.8595 7.80469 24.7658 7.79688 23.9923 7.83594C23.4923 7.85938 22.8829 7.94531 22.4454 8.0625L21.7189 8.25V7.1875C21.7189 5.49219 21.6329 5.39844 19.4689 4.65625C18.2658 4.24219 17.0392 3.96094 15.7579 3.78906C14.6173 3.64062 12.0783 3.64844 10.9767 3.79688ZM14.1095 10.125C14.297 10.2109 14.5158 10.4531 14.7892 10.8672C15.9064 12.5312 17.6251 14.125 20.0783 15.7422C23.7033 18.1406 27.9689 19.9922 31.4923 20.7031L31.9298 20.7891L31.9767 21.2422C32.0626 22.0234 31.8673 22.4062 31.2111 22.7266C30.922 22.8672 30.8986 22.8672 30.2423 22.7266C26.7892 21.9766 22.0861 19.8281 18.4767 17.3672C15.9923 15.6641 14.0236 13.8047 12.922 12.1094C12.5939 11.6094 12.5392 11.4688 12.5392 11.1328C12.5392 10.2891 13.3517 9.76562 14.1095 10.125Z" fill="white"/>
<path d="M0.890625 29.2891C0.578125 29.3672 0.328125 29.5469 0.148438 29.8203C0.015625 30.0234 0 30.2422 0 32.8047C0 35.4375 0.0078125 35.5781 0.15625 35.8203C0.460938 36.3125 0.546875 36.3281 3.53906 36.3281H6.22656L8.23438 32.8594C9.33594 30.9531 10.2344 29.3516 10.2344 29.3047C10.2344 29.2031 1.30469 29.1953 0.890625 29.2891Z" fill="white"/>
<path d="M10.9766 32.5938C9.90625 34.4531 8.98438 36.0547 8.92188 36.1484L8.8125 36.3281H12.6719H16.5312L18.5391 32.8516C19.6406 30.9375 20.5469 29.3359 20.5469 29.2969C20.5469 29.25 19.1953 29.2188 16.7344 29.2188H12.9219L10.9766 32.5938Z" fill="white"/>
<path d="M21.211 32.7109C20.1017 34.6406 19.1798 36.2344 19.1642 36.2656C19.1485 36.3047 20.8673 36.3281 22.9923 36.3281H26.8517L28.8595 32.8594C29.961 30.9531 30.8595 29.3516 30.8595 29.3047C30.8595 29.2422 29.7892 29.2188 27.0392 29.2188H23.2267L21.211 32.7109Z" fill="white"/>
<path d="M31.5078 32.7496L29.4688 36.2886L34.3125 36.3121C39.6797 36.3277 39.5156 36.3433 39.8438 35.8199C39.9922 35.5777 40 35.4371 40 32.8121C40 30.2261 39.9922 30.0386 39.8516 29.8121C39.7656 29.6792 39.5781 29.4996 39.4375 29.4136C39.1953 29.2652 39.0156 29.2574 36.3672 29.2339L33.5547 29.2105L31.5078 32.7496Z" fill="white"/>
</svg>
