<svg width="37" height="37" viewBox="0 0 37 37" fill="none" xmlns="http://www.w3.org/2000/svg">
<path d="M16.4028 0.0830078C16.0278 0.12207 15.4888 0.192383 15.2075 0.24707L14.6919 0.34082L14.0278 2.1377C12.7856 5.50488 11.9106 8.73926 11.5356 11.333L11.481 11.708H18.3716H25.27L25.2153 11.2939C24.9341 9.09082 23.8403 5.16895 22.4888 1.47363L22.0669 0.34082L21.5669 0.24707C20.1763 -0.00292969 17.9185 -0.0732422 16.4028 0.0830078Z" fill="white"/>
<path d="M11.9888 1.12207C7.43408 2.77051 3.50439 6.47363 1.56689 10.9268C1.40283 11.3174 1.26221 11.6533 1.26221 11.6768C1.26221 11.6924 3.19189 11.708 5.55127 11.708H9.83252L9.96533 10.8252C10.3403 8.35645 11.3169 4.84863 12.5825 1.48926C12.7153 1.1377 12.7935 0.848633 12.7622 0.848633C12.731 0.856445 12.3794 0.973633 11.9888 1.12207Z" fill="white"/>
<path d="M23.9575 0.981445C25.27 4.28613 26.1919 7.62988 26.8481 11.4502L26.895 11.708H31.1919H35.4887L35.4419 11.5283C35.3247 11.1455 34.3794 9.28613 33.9731 8.6377C32.1059 5.69238 29.5356 3.37207 26.4575 1.86426C25.5669 1.42676 24.1294 0.848633 23.9419 0.848633C23.9184 0.848633 23.9262 0.911133 23.9575 0.981445Z" fill="white"/>
<path d="M0.676284 13.4189C0.605971 13.5361 0.270034 15.1299 0.152846 15.8877C0.090346 16.333 0.0512835 17.2705 0.059096 18.4268C0.059096 20.3252 0.168471 21.2705 0.543471 22.7627L0.684096 23.3096L2.8716 23.3252L5.05128 23.3486L7.23097 22.1846L9.41847 21.0127L9.39503 18.8408C9.37941 16.9111 9.41847 15.9033 9.59035 13.9111L9.64503 13.3486H5.1841C2.52785 13.3486 0.707534 13.3799 0.676284 13.4189Z" fill="white"/>
<path d="M11.2229 13.5986C11.0588 14.6064 10.8869 18.9189 10.9807 19.7002L11.0432 20.1533L11.676 19.8096C12.5666 19.3252 13.0588 19.1768 13.59 19.2314C14.465 19.3252 15.2229 19.8877 15.6135 20.7471C15.8791 21.333 15.8791 21.9424 15.6057 22.7158C15.4963 23.0361 15.4025 23.3096 15.4025 23.3252C15.4025 23.3408 17.6682 23.3486 20.4338 23.3486C25.1604 23.3486 25.4729 23.3408 25.5119 23.208C25.5275 23.1377 25.59 22.5674 25.6447 21.9424C25.8322 19.8643 25.7463 14.7393 25.5119 13.5596L25.465 13.3486H18.3713H11.2697L11.2229 13.5986Z" fill="white"/>
<path d="M27.1528 13.9189C27.4263 16.9424 27.4263 20.6143 27.1528 22.9424L27.106 23.3486L31.5825 23.333L36.0669 23.3096L36.2388 22.6299C36.5903 21.2314 36.6841 20.2939 36.6841 18.3486C36.6841 16.4033 36.5903 15.4658 36.2388 14.0674L36.0669 13.3877L31.5825 13.3643L27.0981 13.3486L27.1528 13.9189Z" fill="white"/>
<path d="M11.762 21.5596C10.4652 22.2236 7.12141 23.9971 2.39485 26.5283C1.32453 27.1064 0.34797 27.6768 0.230783 27.8096C-0.08953 28.1455 -0.0739049 28.5908 0.262033 28.9189C0.496408 29.1455 0.808908 29.2549 3.25422 29.9502L5.99641 30.7314L6.76985 33.4658C7.47297 35.9268 7.57453 36.2236 7.79328 36.4502C7.9886 36.6455 8.10578 36.708 8.32453 36.708C8.74641 36.708 9.03547 36.5283 9.1761 36.1846C9.64485 35.0049 14.2308 21.8486 14.2308 21.6768C14.2308 21.4033 14.0355 21.0361 13.848 20.9268C13.4964 20.7393 13.1683 20.8408 11.762 21.5596Z" fill="white"/>
<path d="M13.8091 27.8172C13.27 29.3797 12.8247 30.7 12.8247 30.7547C12.8247 30.8172 13.231 32.0906 13.7231 33.5828C14.3794 35.5593 14.6685 36.3172 14.7622 36.3484C15.1763 36.4812 16.6216 36.6453 17.7466 36.6843C19.0356 36.7312 20.5278 36.6375 21.5747 36.45L22.0825 36.3562L22.27 35.8093C22.3716 35.5047 22.6841 34.6453 22.9575 33.8953C23.5747 32.2234 24.145 30.364 24.5435 28.7C24.8481 27.4578 25.2466 25.4265 25.2466 25.1375C25.2466 24.989 25.1372 24.989 20.02 24.989H14.8013L13.8091 27.8172Z" fill="white"/>
<path d="M26.7776 25.8643C26.4104 28.3252 25.4104 31.8877 24.1604 35.2002C24.0276 35.5596 23.9338 35.8486 23.9495 35.8486C24.1291 35.8486 25.5901 35.2549 26.4573 34.833C29.4416 33.3721 31.926 31.1768 33.7776 28.3486C34.262 27.6064 35.3088 25.6064 35.4416 25.1611L35.4885 24.9893H31.1995H26.9104L26.7776 25.8643Z" fill="white"/>
<path d="M11.848 33.3564C11.3949 34.6377 11.1839 35.2471 11.1995 35.2627C11.2308 35.2939 12.7308 35.8486 12.7777 35.8486C12.8167 35.8486 11.9886 33.3486 11.9261 33.2861C11.9105 33.2627 11.8714 33.2939 11.848 33.3564Z" fill="white"/>
</svg>
