<svg width="40" height="40" viewBox="0 0 40 40" fill="none" xmlns="http://www.w3.org/2000/svg">
<path d="M24.8828 5.40625C24.2344 5.64062 23.5859 6.33594 23.4609 6.94531C23.4219 7.10156 23.3984 10.8984 23.3984 15.3906C23.3984 23.2109 23.4062 23.5703 23.5469 23.9375C23.7344 24.4297 24.1484 24.8828 24.6406 25.1406L25.0391 25.3516H30.0391H35.0391L35.4062 25.1719C35.8516 24.9531 36.4297 24.3281 36.5781 23.9219C36.6562 23.6875 36.6797 21.9844 36.6797 15.2734V6.91406L36.4688 6.51562C36.3516 6.28906 36.1094 5.98438 35.9297 5.83594C35.3125 5.29688 35.4375 5.3125 30.0078 5.32031C26.75 5.32031 25.0391 5.35156 24.8828 5.40625ZM32.4922 21.9531C32.5703 21.9922 32.6797 22.125 32.7266 22.2578C32.8047 22.4453 32.8047 22.5234 32.7031 22.7266C32.5078 23.1016 32.25 23.1406 29.8672 23.1094L27.75 23.0859L27.5469 22.8984C27.2891 22.6562 27.2812 22.3047 27.5156 22.0547L27.6797 21.875H30.0156C31.3672 21.875 32.4141 21.9062 32.4922 21.9531Z" fill="white"/>
<path d="M6.79688 12.2185C5.9375 12.4529 5.28906 12.9841 4.9375 13.7341L4.72656 14.1794V21.8747V29.5701L4.92969 29.9997C5.20312 30.5857 5.69531 31.0622 6.3125 31.3513L6.83594 31.6013L17.4922 31.6247C26.9219 31.6404 28.2031 31.6326 28.625 31.5232C29.5156 31.2966 30.2344 30.6638 30.5703 29.8279C30.7109 29.4763 30.7344 29.2107 30.7656 28.031L30.7969 26.6482L27.875 26.6247C25.0234 26.6013 24.9531 26.5935 24.4922 26.4138C23.2344 25.9138 22.3984 24.8826 22.1953 23.5935C22.1406 23.281 22.1094 20.9997 22.1094 17.5935V12.1091L14.6328 12.1169C8.9375 12.1169 7.0625 12.1404 6.79688 12.2185Z" fill="white"/>
<path d="M3.7501 33.3359C3.23448 33.5234 3.14073 34.25 3.58604 34.5859C3.67979 34.6641 6.82823 34.6797 17.7189 34.6875H31.7267L31.9142 34.4922C32.172 34.2422 32.172 33.8359 31.922 33.5391L31.7345 33.3203L17.797 33.3047C10.1407 33.2969 3.8126 33.3125 3.7501 33.3359Z" fill="white"/>
</svg>
