<svg width="40" height="40" viewBox="0 0 40 40" fill="none" xmlns="http://www.w3.org/2000/svg">
<path d="M31.1485 1.69517C31.0313 1.80454 31.1094 1.97642 31.461 2.40611C31.875 2.91392 32.2891 3.75767 32.4141 4.35923C32.6875 5.68736 32.3281 7.15611 31.4531 8.22642C31.25 8.47642 31.0938 8.74204 31.1094 8.81236C31.1563 9.07798 31.461 9.00767 31.9297 8.62486C32.711 7.98423 33.8281 7.57798 34.8047 7.57798C35.7813 7.57798 36.9063 7.99204 37.7031 8.64048C38.1563 9.01548 38.3985 9.07017 38.4766 8.82798C38.5156 8.71079 38.4375 8.56236 38.1797 8.27329C37.4922 7.48423 37.1094 6.42954 37.1094 5.31236C37.1094 4.18736 37.4844 3.14829 38.1719 2.35923C38.4375 2.06236 38.5156 1.91392 38.4766 1.79673C38.3985 1.55454 38.1563 1.60923 37.6953 1.98423C36.9141 2.62486 35.7656 3.04673 34.8047 3.04673C33.8281 3.04673 32.7031 2.63267 31.9063 1.98423C31.5156 1.66392 31.2656 1.57017 31.1485 1.69517Z" fill="white"/>
<path d="M22.633 3.33641C22.5236 3.44579 22.5861 3.64891 22.8127 3.92235C22.9455 4.0786 23.1486 4.41454 23.2658 4.66454C23.4533 5.07079 23.4768 5.21141 23.4768 5.93797C23.4768 6.66454 23.4533 6.80516 23.2658 7.21141C23.1486 7.46141 22.9455 7.79735 22.8127 7.9536C22.3283 8.53954 22.6877 8.85204 23.2658 8.35204C23.4221 8.21141 23.7424 8.00829 23.9846 7.89891C24.3596 7.71922 24.5158 7.69579 25.2346 7.69579C25.969 7.69579 26.1018 7.71922 26.5158 7.90672C26.7658 8.03172 27.094 8.22704 27.2346 8.35985C27.8049 8.85985 28.1252 8.5161 27.6486 7.92235C27.508 7.75047 27.3127 7.42235 27.1955 7.18797C27.0158 6.81297 26.9924 6.66454 26.9924 5.93797C26.9924 5.21922 27.0158 5.06297 27.1955 4.68797C27.3049 4.44579 27.508 4.12547 27.6486 3.96922C28.1408 3.40672 27.8596 3.04735 27.2736 3.50829C26.9455 3.7661 26.3127 4.09422 25.9768 4.17235C25.8518 4.2036 25.4924 4.22704 25.1877 4.22704C24.508 4.22704 23.9143 4.0161 23.344 3.58641C22.9533 3.29735 22.7424 3.21922 22.633 3.33641Z" fill="white"/>
<path d="M3.35938 6.07031C2.60938 6.32812 2.00781 6.91406 1.6875 7.67969C1.52344 8.08594 1.52344 8.10156 1.5 16.4609L1.48438 24.8438H14.2578H27.0312V24.6875C27.0312 24.4844 26.7891 24 26.5234 23.6875C26.0234 23.0859 25.9844 22.4062 26.4219 21.9062C26.7422 21.5391 27.0234 21.4062 27.4609 21.4062C27.8672 21.4062 28.0234 21.4766 28.4844 21.8438C28.9453 22.2188 29.2969 22.3438 29.8984 22.3438C30.4922 22.3438 30.9062 22.1875 31.3359 21.8203C31.7188 21.4844 31.8984 21.4062 32.3047 21.4062C32.7422 21.4062 33.0234 21.5391 33.3438 21.9062C33.7812 22.4062 33.7734 23.0547 33.3125 23.6016C32.9844 24 32.7344 24.4609 32.7344 24.6875C32.7344 24.8438 32.7734 24.8438 34.6094 24.8438H36.4844V16.9609V9.07031L36.0469 8.91406C34.8203 8.45312 33.4062 8.71875 32.4141 9.60156C31.9844 9.97656 31.75 10.0781 31.3047 10.0781C30.5312 10.0781 29.8672 9.22656 30.0391 8.44531C30.0625 8.3125 30.2656 7.98438 30.4844 7.71875C30.9141 7.1875 31.3281 6.39844 31.3281 6.10938V5.9375H29.6875H28.0469V6.1875C28.0547 6.52344 28.2891 7.04688 28.625 7.42969C29.2031 8.10938 29.1172 8.95312 28.4297 9.47656C27.9375 9.83594 27.2578 9.77344 26.7266 9.32812C25.8359 8.5625 24.6641 8.54688 23.8203 9.27344C23.4297 9.61719 23.2188 9.70312 22.8125 9.70312C22.0312 9.70312 21.4844 9.14844 21.4844 8.35156C21.4844 8 21.5938 7.75781 21.9531 7.30469C22.2656 6.91406 22.4219 6.53906 22.4219 6.20312V5.9375H13.0703C4.76562 5.94531 3.67188 5.96094 3.35938 6.07031ZM20.9844 9.97656C20.8594 10.3984 17.9688 20.7891 17.9688 20.8203C17.9688 20.8438 17.7578 20.8594 17.5 20.8594C17.2188 20.8594 17.0312 20.8281 17.0312 20.7734C17.0312 20.7031 19.5391 11.7109 19.9297 10.3672L20.0859 9.84375H20.5547C20.9688 9.84375 21.0234 9.85938 20.9844 9.97656ZM16.0938 12.4844V13.0859L13.3125 14.2266C11.7891 14.8516 10.5391 15.3984 10.5312 15.4375C10.5312 15.4766 11.7734 16.0234 13.2891 16.6484L16.0547 17.7969L16.0781 18.3906C16.0938 18.7188 16.0859 18.9844 16.0703 18.9844C16.0547 18.9844 14.4766 18.3203 12.5703 17.5078L9.10156 16.0312V15.4297V14.8359L12.5781 13.3594C14.4922 12.5469 16.0625 11.8828 16.0781 11.8828C16.0859 11.875 16.0938 12.1484 16.0938 12.4844ZM25.4688 13.3906L28.8672 14.8203V15.4297V16.0391L25.4297 17.5078L21.9922 18.9688L21.9688 18.3828C21.9531 18.0547 21.9531 17.7891 21.9688 17.7812C21.9844 17.7734 23.2188 17.2578 24.7188 16.6328C26.2188 16.0156 27.4453 15.4766 27.4531 15.4375C27.4531 15.4062 26.2188 14.8594 24.7109 14.2344L21.9531 13.1016V12.5312C21.9531 12.2109 21.9766 11.9531 22.0156 11.9531C22.0469 11.9531 23.6016 12.6016 25.4688 13.3906Z" fill="white"/>
<path d="M27.2421 22.5547C27.1328 22.6562 27.1953 22.8359 27.4296 23.1093C27.5703 23.2656 27.789 23.625 27.9218 23.9062C28.1406 24.3593 28.164 24.4843 28.164 25.1562C28.164 25.8281 28.1406 25.9531 27.9218 26.4062C27.789 26.6875 27.5625 27.0468 27.4296 27.2109C26.9218 27.7812 27.3125 28.0078 27.9609 27.5156C28.5937 27.039 29.2343 26.8515 30.0625 26.8906C30.8281 26.9375 31.2343 27.0859 31.8203 27.5312C32.5078 28.0547 32.8046 27.7812 32.2734 27.1172C31.8046 26.5156 31.6093 25.9531 31.6093 25.1562C31.6093 24.3593 31.8046 23.7968 32.2734 23.1953C32.8046 22.5312 32.5078 22.2578 31.8203 22.7812C31.1406 23.3047 30.8515 23.3984 29.8828 23.3984C28.9218 23.3906 28.625 23.2968 27.9453 22.7812C27.5937 22.5156 27.3593 22.4375 27.2421 22.5547Z" fill="white"/>
<path d="M1.5 27.8669L1.52344 29.8044L1.77344 30.3122C2.0625 30.906 2.17969 31.0466 2.67187 31.4216C3.42969 31.9997 2.24219 31.9607 19.2187 31.9372L34.4141 31.9138L34.8594 31.7029C35.4297 31.4372 35.9687 30.8982 36.2344 30.3279C36.4453 29.8904 36.4453 29.8591 36.4687 27.906L36.4922 25.9372H34.6484H32.8047L32.9297 26.1716C32.9922 26.2966 33.1562 26.5232 33.2812 26.6638C33.7109 27.156 33.7812 27.6169 33.5078 28.1794C33.2969 28.6091 32.8047 28.9216 32.3125 28.9216C31.9375 28.9216 31.7031 28.8122 31.1875 28.3982C30.4297 27.7888 29.2734 27.8201 28.4844 28.4685C28.0234 28.8357 27.8437 28.9216 27.4531 28.9216C26.5859 28.9216 25.9062 28.031 26.1641 27.2419C26.2187 27.0857 26.3672 26.8279 26.5 26.6638C26.625 26.4997 26.7812 26.2732 26.8437 26.1482L26.9609 25.9372H14.2109H1.46875L1.5 27.8669ZM19.5312 28.0232C19.7969 28.1794 20.0781 28.656 20.0781 28.9372C20.0781 29.5857 19.3594 30.1326 18.7187 29.9685C18.3984 29.8904 18.0547 29.5388 17.9687 29.2107C17.8516 28.7966 17.9766 28.4372 18.3281 28.1247C18.5469 27.9372 18.6719 27.8904 18.9531 27.8904C19.1484 27.8904 19.4141 27.9451 19.5312 28.0232Z" fill="white"/>
<path d="M14.0234 34.4531L13.6328 35.8594H12.4922H11.3438L11.1406 36.1016C10.9531 36.3203 10.9375 36.3984 10.9375 37.125C10.9375 37.8828 10.9453 37.9062 11.1641 38.1328L11.3906 38.3594H19.0078H26.6172L26.8125 38.1641C27.0391 37.9453 27.1094 37.6719 27.1094 37.0781C27.1094 36.5859 26.9922 36.1484 26.8203 36.0078C26.7344 35.9297 26.3516 35.8906 25.5234 35.8594L24.3594 35.8203L23.9688 34.4297L23.5781 33.0469H18.9922H14.4141L14.0234 34.4531Z" fill="white"/>
</svg>
