<svg width="32" height="32" viewBox="0 0 32 32" fill="none" xmlns="http://www.w3.org/2000/svg">
<g clip-path="url(#clip0_4846_869)">
<path d="M8.25 0.0940685C4.1875 0.587819 1.1375 2.28157 0.18125 4.56282C0.05 4.86282 0.0375 5.01282 0.03125 5.75032C0.03125 6.52532 0.05 6.62532 0.2 6.98157C0.95625 8.75657 3.0625 10.1628 6.075 10.9003C7.59375 11.2753 8.23125 11.3378 10.4062 11.3378C12.175 11.3441 12.5062 11.3253 13.2812 11.2003C16.9812 10.6128 19.6625 9.07532 20.5125 7.06282C20.675 6.67532 20.7125 6.48782 20.7375 5.96907C20.7937 4.73782 20.475 3.97532 19.4687 2.96282C19.1187 2.60657 18.625 2.18782 18.3437 2.00032C16.8687 1.04407 14.7812 0.350319 12.5687 0.0940685C11.6062 -0.0184317 9.18125 -0.0184317 8.25 0.0940685Z" fill="white"/>
<path d="M0.0123047 11.0128C0.0373047 12.144 0.0435547 12.244 0.199805 12.6065C1.06855 14.669 3.7748 16.219 7.54355 16.8128C7.98105 16.8878 8.82481 16.9565 9.40605 16.9815L10.4686 17.019L10.8061 16.3378C11.3311 15.269 11.9936 14.3003 12.7873 13.444L13.1561 13.044L12.6873 13.094C7.8623 13.5878 3.16855 12.4753 0.431055 10.1753L-0.0126953 9.80029L0.0123047 11.0128Z" fill="white"/>
<path d="M20.4059 11.4127C18.7184 11.6689 17.2059 12.2377 15.9059 13.1189C13.6684 14.6189 12.1621 16.8689 11.5496 19.6064C11.4246 20.1439 11.4121 20.4002 11.4121 21.6877C11.4121 22.9752 11.4246 23.2314 11.5496 23.7689C12.1621 26.5189 13.6809 28.7627 15.9371 30.2752C17.0371 31.0189 18.0809 31.4627 19.4746 31.7877C20.1809 31.9564 20.2934 31.9689 21.6871 31.9627C22.9746 31.9627 23.2309 31.9502 23.7746 31.8252C27.8996 30.9002 30.8996 27.9002 31.8246 23.7689C31.9496 23.2314 31.9621 22.9752 31.9621 21.6877C31.9621 20.4002 31.9496 20.1439 31.8246 19.6064C30.9059 15.4814 27.8996 12.4689 23.7996 11.5564C23.3371 11.4502 22.9496 11.4252 21.9059 11.4064C21.1871 11.3939 20.5121 11.4002 20.4059 11.4127ZM22.6246 16.1689L22.6309 17.2189L22.9559 17.3689C23.6809 17.7127 24.3496 18.6502 24.4184 19.4314L24.4559 19.8127H23.5371H22.6246V19.6377C22.6246 19.2189 22.1996 18.8752 21.6871 18.8752C21.0934 18.8752 20.7496 19.2189 20.7496 19.8002C20.7496 20.4502 21.0434 20.7002 21.8996 20.8064C22.9496 20.9314 23.7746 21.5127 24.2059 22.4189C24.3934 22.8189 24.4059 22.8814 24.4059 23.5627C24.4059 24.2564 24.3996 24.3002 24.1934 24.7189C23.9309 25.2502 23.4121 25.7939 22.9559 26.0064L22.6309 26.1564L22.6246 27.2002V28.2502H21.6871H20.7496V27.2002L20.7434 26.1564L20.4184 26.0064C19.6871 25.6627 19.0246 24.7314 18.9559 23.9377L18.9184 23.5627H19.8371H20.7496V23.7314C20.7496 24.1564 21.1746 24.5002 21.6871 24.5002C22.2809 24.5002 22.6246 24.1564 22.6246 23.5689C22.6246 23.1877 22.4809 22.9002 22.2059 22.7377C22.1121 22.6814 21.7809 22.6064 21.4746 22.5689C20.4246 22.4439 19.5996 21.8627 19.1684 20.9564C18.9809 20.5564 18.9684 20.4939 18.9684 19.8127C18.9684 19.1314 18.9809 19.0689 19.1684 18.6689C19.4121 18.1502 19.9559 17.5877 20.4184 17.3689L20.7434 17.2189L20.7496 16.1689V15.1252H21.6871H22.6246V16.1689Z" fill="white"/>
<path d="M0 16.4812C0 17.6188 0.05625 17.9375 0.3375 18.5C1.025 19.8687 2.65625 21.0437 4.89375 21.7812C6.15625 22.1937 7.33125 22.4188 9.225 22.5938L9.54375 22.625L9.58125 21.3562C9.60625 20.4312 9.65 19.925 9.74375 19.4688C9.81875 19.125 9.875 18.8438 9.875 18.8375C9.875 18.8312 9.5625 18.8125 9.175 18.7875C5.58125 18.5687 2.4125 17.4812 0.4 15.775L0 15.4313V16.4812Z" fill="white"/>
<path d="M0.0123047 22.2563C0.0373047 23.3938 0.0435547 23.4938 0.199805 23.8563C1.06855 25.9188 3.7498 27.4563 7.54355 28.0688C8.1248 28.1625 8.76231 28.2063 9.89355 28.2313C10.7436 28.25 11.4373 28.2438 11.4373 28.2188C11.4373 28.1938 11.3373 28.0063 11.2123 27.8063C10.7436 27.0313 10.0998 25.4688 9.90605 24.6188C9.86856 24.4563 9.85606 24.4563 9.13731 24.4125C5.60605 24.2063 2.40605 23.1 0.393555 21.3938L-0.0126953 21.05L0.0123047 22.2563Z" fill="white"/>
</g>
<defs>
<clipPath id="clip0_4846_869">
<rect width="32" height="32" fill="white"/>
</clipPath>
</defs>
</svg>
