<svg width="16" height="27" viewBox="0 0 16 27" fill="none" xmlns="http://www.w3.org/2000/svg">
<path d="M3.47549 0.13125L3.31299 0.25625V3.85C3.31299 6.075 3.33799 7.4875 3.37549 7.5625C3.50049 7.8 3.70674 7.8125 7.87549 7.8125C12.0442 7.8125 12.2505 7.8 12.3755 7.5625C12.413 7.4875 12.438 6.09375 12.438 3.89375C12.438 -0.0125003 12.4505 0.11875 12.063 0.03125C11.913 0 11.763 0.0374999 11.4067 0.2125L10.938 0.43125L10.4692 0.2125C10.2067 0.0999999 9.95049 0 9.90049 0C9.84424 0 9.59424 0.0999999 9.33799 0.2125L8.86924 0.43125L8.42549 0.2125C8.17549 0.0999999 7.91924 0 7.86299 0C7.80049 0 7.55049 0.0999999 7.31299 0.21875L6.88174 0.4375L6.40049 0.21875C6.13799 0.0999999 5.87549 0 5.81924 0C5.76299 0 5.51299 0.0999999 5.26299 0.21875L4.81299 0.43125L4.36299 0.21875C3.83799 -0.0374999 3.70049 -0.0500002 3.47549 0.13125Z" fill="white"/>
<path d="M1.01282 5.40625C0.644067 5.56875 0.381567 5.81875 0.187817 6.20625L0.000317397 6.58125V15.9688C0.000317397 26.2625 -0.0246826 25.6562 0.369067 26.1312C0.469067 26.25 0.700317 26.4313 0.881567 26.5312L1.21907 26.7188H7.87532H14.5316L14.8691 26.5312C15.0503 26.4313 15.2816 26.25 15.3816 26.1312C15.7753 25.65 15.7503 26.2625 15.7378 15.9062C15.7191 6.7125 15.7128 6.4625 15.6003 6.225C15.2878 5.59375 14.7878 5.31875 13.9878 5.3125H13.4378V6.45625C13.4378 7.58125 13.4378 7.60625 13.2691 7.94375C13.0566 8.35625 12.6816 8.65 12.2503 8.74375C11.8128 8.8375 3.93782 8.8375 3.50032 8.74375C3.06907 8.65 2.69407 8.35625 2.48782 7.94375C2.31282 7.60625 2.31282 7.58125 2.31282 6.45625V5.3125H1.76907C1.43782 5.31875 1.13782 5.35 1.01282 5.40625ZM13.1941 10.1812L13.3753 10.3625V12.6875C13.3753 14.2312 13.3503 15.05 13.3066 15.1375C13.1441 15.4375 13.1566 15.4375 7.87532 15.4375C2.49407 15.4375 2.56907 15.4437 2.43782 15.0938C2.40032 14.9937 2.37532 14.0062 2.37532 12.65V10.3625L2.55657 10.1812L2.73782 10H7.87532H13.0128L13.1941 10.1812ZM5.09407 17.4062C5.29407 17.6 5.29407 17.8187 5.10032 18.0437C4.95657 18.2125 4.92532 18.2188 4.35657 18.2188C3.81282 18.2188 3.74407 18.2063 3.60032 18.0687C3.38782 17.8687 3.38782 17.6062 3.59407 17.4062C3.73157 17.2625 3.79407 17.25 4.34407 17.25C4.89407 17.25 4.95657 17.2625 5.09407 17.4062ZM8.53157 17.2875C8.58157 17.3125 8.67532 17.4125 8.72532 17.5125C8.80657 17.6687 8.80657 17.7312 8.74407 17.8812C8.63782 18.15 8.39407 18.25 7.87532 18.25C7.35032 18.25 7.08782 18.1375 7.01907 17.8875C6.96282 17.6625 6.98782 17.5562 7.14407 17.3875C7.25657 17.2625 7.33157 17.25 7.85032 17.25C8.16907 17.25 8.47532 17.2688 8.53157 17.2875ZM12.1816 17.4125C12.3628 17.6375 12.3503 17.8812 12.1503 18.0687C12.0066 18.2063 11.9378 18.2188 11.3941 18.2188C10.8253 18.2188 10.7941 18.2125 10.6503 18.0437C10.4566 17.8187 10.4566 17.6 10.6566 17.4062C10.7941 17.2625 10.8503 17.25 11.4316 17.25C12.0316 17.25 12.0566 17.2562 12.1816 17.4125ZM5.09407 20.2188C5.31282 20.4375 5.30032 20.6937 5.05657 20.9C4.88782 21.0437 4.81282 21.0625 4.36907 21.0625C3.86907 21.0625 3.66282 21.0062 3.51907 20.8187C3.39407 20.6562 3.42532 20.3812 3.59407 20.2188C3.73157 20.075 3.79407 20.0625 4.34407 20.0625C4.89407 20.0625 4.95657 20.075 5.09407 20.2188ZM8.65657 20.2625C8.84407 20.4812 8.83157 20.6937 8.61907 20.9062C8.51282 21.0125 8.41282 21.0312 7.87532 21.0312C7.31907 21.0312 7.23782 21.0187 7.11907 20.8937C6.93157 20.7125 6.93782 20.4187 7.12532 20.2188C7.26282 20.075 7.31282 20.0625 7.88157 20.0625C8.48782 20.0625 8.48782 20.0625 8.65657 20.2625ZM12.1566 20.2188C12.3253 20.3812 12.3566 20.6562 12.2316 20.8187C12.0878 21.0062 11.8816 21.0625 11.3753 21.0625C10.8941 21.0625 10.8566 21.05 10.6816 20.8812C10.4566 20.6562 10.4503 20.425 10.6566 20.2188C10.7941 20.075 10.8566 20.0625 11.4066 20.0625C11.9566 20.0625 12.0191 20.075 12.1566 20.2188ZM5.09407 23.0312C5.30032 23.2313 5.30032 23.5 5.08782 23.7125C4.93157 23.8625 4.88782 23.875 4.33157 23.875C3.79407 23.875 3.73157 23.8625 3.59407 23.7188C3.49407 23.625 3.43782 23.4937 3.43782 23.375C3.43782 23.2562 3.49407 23.125 3.59407 23.0312C3.73157 22.8875 3.79407 22.875 4.34407 22.875C4.89407 22.875 4.95657 22.8875 5.09407 23.0312ZM8.60032 23.0187C8.72532 23.125 8.76907 23.225 8.76907 23.375C8.76907 23.525 8.72532 23.625 8.60032 23.7313C8.45032 23.8563 8.36907 23.875 7.87532 23.875C7.38157 23.875 7.30032 23.8563 7.15032 23.7313C7.02532 23.625 6.98157 23.525 6.98157 23.375C6.98157 23.225 7.02532 23.125 7.15032 23.0187C7.30032 22.8937 7.38157 22.875 7.87532 22.875C8.36907 22.875 8.45032 22.8937 8.60032 23.0187ZM12.1566 23.0312C12.2566 23.125 12.3128 23.2562 12.3128 23.375C12.3128 23.4937 12.2566 23.625 12.1566 23.7188C12.0191 23.8625 11.9628 23.875 11.4253 23.875C10.8253 23.8687 10.7066 23.8312 10.5753 23.5812C10.4628 23.3687 10.4878 23.2188 10.6628 23.0375C10.8191 22.8875 10.8628 22.875 11.4191 22.875C11.9566 22.875 12.0191 22.8875 12.1566 23.0312Z" fill="white"/>
</svg>
