<svg width="25" height="32" viewBox="0 0 25 32" fill="none" xmlns="http://www.w3.org/2000/svg">
<path d="M0.4125 0.11875C0.31875 0.18125 0.18125 0.31875 0.11875 0.4125C0.00625 0.5875 0 0.956249 0 13.1875C0 25.4187 0.00625 25.7875 0.11875 25.9625C0.18125 26.0563 0.31875 26.1937 0.4125 26.2563C0.5875 26.3687 0.875 26.375 9.375 26.375C17.875 26.375 18.1625 26.3687 18.3375 26.2563C18.4312 26.1937 18.5688 26.0563 18.6313 25.9625C18.7437 25.7875 18.75 25.4187 18.75 13.1875C18.75 0.956249 18.7437 0.5875 18.6313 0.4125C18.5688 0.31875 18.4312 0.18125 18.3375 0.11875C18.1625 0.00625038 17.875 0 9.375 0C0.875 0 0.5875 0.00625038 0.4125 0.11875ZM9.79375 4.8875C10.0625 5.0375 10.25 5.3625 10.25 5.6875C10.25 6.0125 10.1 6.28125 9.8125 6.45625C9.59375 6.59375 9.56875 6.59375 6.5625 6.59375C3.64375 6.59375 3.525 6.5875 3.325 6.46875C3.04375 6.3 2.875 6.0125 2.875 5.69375C2.875 5.2375 3.13125 4.91875 3.59375 4.80625C3.69375 4.78125 5.0875 4.7625 6.6875 4.76875C9.3125 4.78125 9.6125 4.79375 9.79375 4.8875ZM15.4187 8.6375C15.6875 8.7875 15.875 9.1125 15.875 9.4375C15.875 9.7625 15.725 10.0312 15.4375 10.2062L15.2188 10.3438H9.375C3.64375 10.3438 3.525 10.3438 3.325 10.2188C3.04375 10.05 2.875 9.7625 2.875 9.44375C2.875 8.9875 3.1375 8.66875 3.59375 8.55625C3.69375 8.53125 6.35625 8.51875 9.5 8.51875C14.7875 8.53125 15.2312 8.5375 15.4187 8.6375ZM15.4187 12.3875C15.6875 12.5375 15.875 12.8625 15.875 13.1875C15.875 13.5125 15.725 13.7812 15.4375 13.9563L15.2188 14.0938H9.375C3.64375 14.0938 3.525 14.0938 3.325 13.9688C3.04375 13.8 2.875 13.5125 2.875 13.1937C2.875 12.7375 3.1375 12.4187 3.59375 12.3062C3.69375 12.2812 6.35625 12.2688 9.5 12.2688C14.7875 12.2812 15.2312 12.2875 15.4187 12.3875ZM15.4187 16.1375C15.6875 16.2875 15.875 16.6125 15.875 16.9375C15.875 17.2625 15.725 17.5312 15.4375 17.7063L15.2188 17.8438H9.375C3.64375 17.8438 3.525 17.8438 3.325 17.7188C3.04375 17.55 2.875 17.2625 2.875 16.9437C2.875 16.4875 3.1375 16.1687 3.59375 16.0562C3.69375 16.0312 6.35625 16.0188 9.5 16.0188C14.7875 16.0312 15.2312 16.0375 15.4187 16.1375ZM15.4187 19.8875C16.0188 20.2188 16.025 21.1062 15.425 21.4688C15.2312 21.5875 15.1062 21.5938 13.125 21.5938C11.1438 21.5938 11.0188 21.5875 10.825 21.4688C10.5437 21.3 10.375 21.0125 10.375 20.6937C10.375 20.2375 10.6313 19.9187 11.0938 19.8063C11.1938 19.7812 12.1687 19.7625 13.25 19.7687C14.9812 19.7812 15.2438 19.7937 15.4187 19.8875Z" fill="white"/>
<path d="M20.625 15.4812C20.625 21.4125 20.6 25.4625 20.5625 25.7438C20.3938 27.0312 19.4062 28.0187 18.1188 28.1875C17.85 28.2188 15.1375 28.25 11.6438 28.25H5.625V29.825C5.625 31.5687 5.6375 31.6125 6.0375 31.8813C6.2125 31.9937 6.5 32 15 32C23.5 32 23.7875 31.9937 23.9625 31.8813C24.0562 31.8187 24.1938 31.6813 24.2563 31.5875C24.3687 31.4125 24.375 31.0437 24.375 18.8438C24.375 6.64375 24.3687 6.275 24.2563 6.1C23.9875 5.7 23.9438 5.6875 22.2063 5.6875H20.625V15.4812Z" fill="white"/>
</svg>
