<svg width="32" height="32" viewBox="0 0 32 32" fill="none" xmlns="http://www.w3.org/2000/svg">
<g clip-path="url(#clip0_4846_884)">
<path d="M13.575 0.1625C13.3 0.38125 13.2125 0.574999 13.0312 1.35625C12.8063 2.31875 12.8438 2.26875 12.2438 2.43125C11.2312 2.7 9.86875 3.26875 9.00625 3.775C8.79375 3.9 8.5875 4 8.55 4C8.51875 4 8.18125 3.8125 7.80625 3.5875C7.09375 3.1625 6.85 3.08125 6.45625 3.15625C6.25 3.19375 6.0125 3.40625 4.76875 4.64375C3.96875 5.4375 3.26875 6.18125 3.2125 6.3C3.03125 6.68125 3.1125 7.01875 3.58125 7.79375C3.8125 8.175 4 8.5125 4 8.55C4 8.5875 3.88125 8.81875 3.7375 9.075C3.19375 10.0312 2.6875 11.2563 2.43125 12.2437L2.2875 12.8062L1.46875 13C0.56875 13.2125 0.3125 13.3312 0.125 13.6375C0.00625 13.8312 0 13.9562 0 16C0 18.0437 0.00625 18.1687 0.125 18.3625C0.3125 18.6687 0.56875 18.7875 1.475 19L2.29375 19.1937L2.36875 19.5375C2.5125 20.1812 3.21875 22.0625 3.3125 22.0625C3.33125 22.0625 4.33125 21.075 5.53125 19.875C7.65 17.7562 7.71875 17.675 7.7125 17.45C7.70625 17.325 7.68125 16.7937 7.65625 16.2812C7.61875 15.55 7.63125 15.2125 7.7125 14.75C8.00625 12.9562 8.7375 11.4812 9.96875 10.1938C11.2438 8.86875 12.9125 7.99375 14.7063 7.7125C15.4812 7.5875 17.05 7.625 17.75 7.78125C20.3563 8.3625 22.4563 10.0437 23.5938 12.4562C24.6438 14.6812 24.6375 17.3562 23.5688 19.6C23.125 20.525 22.6938 21.1312 21.9125 21.9125C20.7 23.1312 19.4062 23.8313 17.7 24.1875C16.9125 24.3562 15.5625 24.4187 14.875 24.3187L14.3562 24.2375L12.1438 26.45C10.9313 27.6625 9.9375 28.6688 9.9375 28.6875C9.94375 28.7875 11.8 29.4813 12.45 29.625L12.8063 29.7062L12.9938 30.5125C13.2125 31.4375 13.2937 31.6188 13.5813 31.8375L13.7937 32H16.0125H18.2313L18.4937 31.7625C18.7437 31.5375 18.7625 31.5 18.9688 30.6625C19.0875 30.1812 19.2063 29.7687 19.2313 29.7437C19.2563 29.7188 19.5063 29.6375 19.7812 29.5687C20.7938 29.2938 22.1063 28.7437 22.9937 28.2313C23.2063 28.1 23.4125 28 23.45 28C23.4813 28 23.8188 28.1875 24.1938 28.4125C24.9062 28.8375 25.15 28.9188 25.5438 28.8438C25.75 28.8062 25.9875 28.5938 27.2313 27.3562C28.0312 26.5625 28.7313 25.8187 28.7875 25.7C28.9688 25.3187 28.8875 24.9938 28.4188 24.2C28.1875 23.8125 28 23.475 28 23.4375C28 23.4062 28.1 23.2063 28.2313 22.9937C28.7437 22.1062 29.2938 20.7937 29.5688 19.7812C29.6375 19.5062 29.7188 19.2562 29.7437 19.2312C29.7688 19.2063 30.1812 19.0875 30.6625 18.9688C31.5 18.7625 31.5375 18.7437 31.7688 18.4937L32 18.2312V16V13.7687L31.7688 13.5063C31.5375 13.2563 31.5 13.2375 30.6625 13.0312C30.1812 12.9125 29.7688 12.7937 29.7437 12.7687C29.7188 12.7437 29.6375 12.4937 29.5688 12.2188C29.2938 11.2062 28.7437 9.89375 28.2313 9.00625C28.1 8.79375 28 8.59375 28 8.5625C28 8.525 28.1875 8.1875 28.4188 7.8C28.8875 7.00625 28.9688 6.68125 28.7875 6.3C28.7313 6.18125 28.0312 5.4375 27.2313 4.64375C25.9875 3.40625 25.75 3.19375 25.5438 3.15625C25.15 3.08125 24.9062 3.1625 24.1938 3.5875C23.8188 3.8125 23.4813 4 23.45 4C23.4125 4 23.2063 3.9 22.9937 3.76875C22.1063 3.25625 20.7938 2.70625 19.7812 2.43125C19.5063 2.3625 19.2563 2.28125 19.2313 2.25625C19.2063 2.23125 19.0875 1.81875 18.9688 1.3375C18.7625 0.5 18.7437 0.4625 18.4937 0.231249L18.2313 0H16.0063H13.7812L13.575 0.1625Z" fill="white"/>
<path d="M14.8376 9.50631C14.3126 9.59381 13.5001 9.86881 12.9689 10.1438C11.3439 10.9876 10.2001 12.3938 9.65014 14.2188C9.49389 14.7376 9.48139 14.8688 9.47514 15.9376C9.46889 16.9688 9.48764 17.1501 9.61889 17.6438L9.76889 18.2001L5.10639 22.8626C2.55014 25.4313 0.400138 27.6251 0.343888 27.7438C-0.0248621 28.4751 -0.112362 29.4001 0.118888 30.0813C0.700138 31.7751 2.63764 32.5126 4.22514 31.6438C4.43764 31.5313 5.91264 30.1001 9.16264 26.8626L13.7939 22.2376L14.3501 22.3876C14.8376 22.5126 15.0439 22.5313 16.0314 22.5313C17.2564 22.5251 17.6626 22.4563 18.6501 22.0751C20.5564 21.3313 22.0501 19.4438 22.4626 17.2563C22.6751 16.1313 22.5189 14.2563 22.1751 13.8938C21.8814 13.5813 21.4751 13.4813 21.0814 13.6313C20.9876 13.6688 20.3439 14.2501 19.6564 14.9313C18.8751 15.7063 18.3001 16.2251 18.1251 16.3126C17.1939 16.7813 15.9939 16.3063 15.6189 15.3188C15.4501 14.8751 15.4814 14.2876 15.6876 13.8751C15.7751 13.7001 16.2939 13.1251 17.0689 12.3438C17.7501 11.6563 18.3314 11.0126 18.3689 10.9188C18.5189 10.5251 18.4189 10.1188 18.1064 9.82506C17.7751 9.51256 15.8939 9.33131 14.8376 9.50631Z" fill="white"/>
</g>
<defs>
<clipPath id="clip0_4846_884">
<rect width="32" height="32" fill="white"/>
</clipPath>
</defs>
</svg>
