<svg width="27" height="32" viewBox="0 0 27 32" fill="none" xmlns="http://www.w3.org/2000/svg">
<path d="M12.8262 0.0208695C12.5199 0.139619 12.5137 0.15837 12.5137 1.65837C12.5137 3.21462 12.5324 3.30837 12.8824 3.38337C13.0887 3.42712 13.4137 3.28962 13.4762 3.13337C13.4949 3.07712 13.5137 2.40212 13.5137 1.63962C13.5137 0.37087 13.5012 0.239619 13.4012 0.145869C13.2762 0.0271194 12.9699 -0.0353806 12.8262 0.0208695Z" fill="white"/>
<path d="M7.54485 1.44612C7.26985 1.71487 7.3261 1.90237 8.0136 3.10237C8.3636 3.70237 8.6886 4.23362 8.74485 4.27112C8.91985 4.40862 9.2886 4.37112 9.4386 4.20862C9.6886 3.94612 9.6261 3.73987 8.98235 2.60862C8.6511 2.03987 8.3136 1.50862 8.2261 1.42737C8.01985 1.24612 7.7386 1.24612 7.54485 1.44612Z" fill="white"/>
<path d="M17.8512 1.47749C17.6824 1.54624 16.3887 3.77124 16.3887 3.98999C16.3887 4.07749 16.4449 4.22124 16.5199 4.31499C16.6824 4.52749 17.1199 4.54624 17.2949 4.35249C17.5074 4.12124 18.6387 2.07749 18.6387 1.92749C18.6387 1.84624 18.5574 1.69624 18.4574 1.59624C18.2699 1.41499 18.0949 1.37749 17.8512 1.47749Z" fill="white"/>
<path d="M3.81992 5.05845C3.68867 5.15845 3.57617 5.3772 3.57617 5.53345C3.57617 5.7647 3.85117 5.9772 4.95117 6.60845C5.85117 7.12095 6.07617 7.2272 6.22617 7.2022C6.58242 7.1272 6.75117 6.84595 6.63867 6.5022C6.57617 6.32095 6.43242 6.2147 5.42617 5.6397C4.27617 4.9772 4.03867 4.8897 3.81992 5.05845Z" fill="white"/>
<path d="M12.1383 5.23965C11.0196 5.3959 10.0008 5.92715 9.10708 6.8209C8.39458 7.5334 8.06333 8.0584 7.76958 8.9459C7.03208 11.1521 7.72583 13.5584 9.51333 15.0271C10.0383 15.4521 11.0258 15.9396 11.7008 16.1021C12.4321 16.2771 13.5946 16.2771 14.3258 16.1021C15.0008 15.9396 15.9883 15.4521 16.5133 15.0271C17.9571 13.8396 18.7321 11.9459 18.5196 10.1334C18.3571 8.77715 17.8571 7.7459 16.8946 6.78965C15.6008 5.5084 13.9696 4.97715 12.1383 5.23965ZM16.0758 8.1584C16.3071 8.3209 16.4696 8.6834 16.4196 8.92715C16.3821 9.08965 15.9258 9.5834 14.3321 11.1834C13.2133 12.3146 12.2196 13.2771 12.1258 13.3271C11.9008 13.4459 11.6008 13.4396 11.4008 13.3146C11.2071 13.2021 9.45708 11.0146 9.37583 10.7834C9.23208 10.4021 9.54458 9.90215 9.96958 9.8209C10.3383 9.75215 10.5508 9.9084 11.1946 10.7271C11.5196 11.1396 11.8008 11.4771 11.8196 11.4771C11.8383 11.4771 12.6008 10.7334 13.5133 9.82715C14.4883 8.85215 15.2571 8.1334 15.3883 8.07715C15.6321 7.96465 15.8446 7.98965 16.0758 8.1584Z" fill="white"/>
<path d="M20.4512 5.87129C19.6512 6.34004 19.3324 6.55879 19.2762 6.68379C19.1074 7.02754 19.3512 7.41504 19.7262 7.41504C19.8824 7.41504 20.2262 7.25254 20.9949 6.81504C21.5699 6.48379 22.1012 6.15879 22.1699 6.09629C22.3512 5.92129 22.3387 5.50254 22.1449 5.34629C21.8574 5.11504 21.6262 5.18379 20.4512 5.87129Z" fill="white"/>
<path d="M2.31992 10.2213C2.21992 10.3213 2.13867 10.465 2.13867 10.54C2.13867 10.7213 2.30117 11.015 2.41992 11.065C2.47617 11.0838 3.12617 11.1025 3.85742 11.1025C4.58867 11.1025 5.23867 11.0838 5.29492 11.065C5.45117 11.0025 5.58867 10.6775 5.54492 10.4713C5.51992 10.3713 5.43242 10.2338 5.34492 10.165C5.19492 10.0463 5.09492 10.04 3.84492 10.04H2.50117L2.31992 10.2213Z" fill="white"/>
<path d="M20.5949 10.3338C20.4074 10.3713 20.2012 10.64 20.2012 10.8525C20.2012 10.9463 20.2574 11.0963 20.3324 11.19L20.4574 11.3525H21.8637C22.6637 11.3525 23.3199 11.3275 23.3887 11.29C23.7199 11.1088 23.6387 10.49 23.2637 10.3588C23.0699 10.2963 20.9137 10.2713 20.5949 10.3338Z" fill="white"/>
<path d="M5.0634 13.8396C4.04465 14.2459 3.19465 14.5896 3.1759 14.6084C3.15715 14.6271 5.3634 15.5084 8.0759 16.5646L13.0196 18.4834L17.9509 16.5646C20.6696 15.5084 22.8696 14.6209 22.8446 14.5959C22.7884 14.5459 19.0571 13.0959 19.0446 13.1209C19.0384 13.1271 18.9009 13.3896 18.7384 13.7021C17.8384 15.4584 16.0634 16.7521 14.0759 17.1084C13.4884 17.2146 12.3821 17.1959 11.7946 17.0709C9.80715 16.6521 8.15715 15.4146 7.2759 13.6834C7.1134 13.3646 6.96965 13.1021 6.9509 13.1084C6.93215 13.1084 6.08215 13.4396 5.0634 13.8396Z" fill="white"/>
<path d="M0.969784 16.9898C0.407284 17.9585 -0.0239658 18.771 0.00103418 18.796C0.0697842 18.8648 10.2635 22.8148 10.2823 22.7835C10.3698 22.6773 12.3385 19.2148 12.3198 19.2023C12.2698 19.1585 2.09478 15.2273 2.03853 15.2273C2.00728 15.2273 1.52603 16.021 0.969784 16.9898Z" fill="white"/>
<path d="M18.7949 17.215C16.0136 18.2963 13.7199 19.1963 13.7074 19.2025C13.6761 19.2275 15.7261 22.7838 15.7761 22.79C15.8386 22.79 25.9761 18.8463 26.0261 18.7963C26.1011 18.7275 24.0636 15.2275 23.9511 15.2338C23.9011 15.24 21.5824 16.1275 18.7949 17.215Z" fill="white"/>
<path d="M2.27611 23.9898L2.29486 27.2523L7.32611 29.2085C10.0949 30.2835 12.3949 31.1773 12.4386 31.196C12.4949 31.2148 12.5136 30.1523 12.5136 25.996V20.7648L11.6699 22.221C10.8324 23.6648 10.7074 23.846 10.5074 23.8523C10.4511 23.8523 8.59486 23.146 6.38861 22.2898C4.17611 21.4273 2.34486 20.7273 2.31361 20.7273C2.28861 20.7273 2.26986 22.196 2.27611 23.9898Z" fill="white"/>
<path d="M19.6387 22.2898C17.4574 23.1461 15.6137 23.8461 15.5387 23.8461C15.4699 23.8523 15.3574 23.8023 15.2887 23.7398C15.2199 23.6711 14.8012 22.9898 14.3574 22.2148L13.5449 20.8086L13.5262 23.4273C13.5199 24.8711 13.5199 27.2086 13.5262 28.6336L13.5449 31.2148L18.6387 29.2336L23.7324 27.2523L23.7512 23.9898C23.7637 21.3961 23.7512 20.7273 23.6887 20.7336C23.6449 20.7336 21.8199 21.4398 19.6387 22.2898Z" fill="white"/>
</svg>
