<svg width="24" height="24" viewBox="0 0 24 24" fill="none" xmlns="http://www.w3.org/2000/svg">
<path d="M0 5.34375V10.6875H5.34375H10.6875V5.34375V0H5.34375H0V5.34375ZM6.625 5.3125V6.625H5.3125H4V5.3125V4H5.3125H6.625V5.3125Z" fill="white"/>
<path d="M13.3125 5.34375V10.6875H18.6562H24V5.34375V0H18.6562H13.3125V5.34375ZM20 5.3125V6.625H18.6875H17.375V5.3125V4H18.6875H20V5.3125Z" fill="white"/>
<path d="M0 18.6562V24H5.34375H10.6875V18.6562V13.3125H5.34375H0V18.6562ZM6.625 18.6875V20H5.3125H4V18.6875V17.375H5.3125H6.625V18.6875Z" fill="white"/>
<path d="M13.3125 15.3438V17.375H15.3125H17.3125V18V18.625H16.6562H16V19.3125V20H14.6562H13.3125V22V24H14.6562H16V22.6875V21.375H17.3125H18.625V22.6875V24H21.3125H24V21.3125V18.625H22.6562H21.3125V19.9688V21.3125H20H18.6875V20V18.6875H19.3438H20V17.3438V16H22H24V14.6562V13.3125H22H20V14.6562V16H18.6875H17.375V14.6562V13.3125H15.3438H13.3125V15.3438Z" fill="white"/>
</svg>
