<svg width="28" height="28" viewBox="0 0 28 28" fill="none" xmlns="http://www.w3.org/2000/svg">
<g clip-path="url(#clip0_4846_798)">
<path d="M8.26328 0.109375C7.61797 0.344532 7.13125 0.782032 6.81953 1.41641L6.64453 1.77734L6.62812 6.71016L6.61719 11.643H7.44844C8.925 11.643 10.1773 11.9438 11.4844 12.6109C12.3867 13.0703 13.0703 13.568 13.7922 14.2844L14.3828 14.8695L18.9383 14.8859L23.4883 14.9023L23.6797 15.0227C24.1992 15.3453 24.1938 16.0617 23.6687 16.3789C23.4937 16.4828 23.3789 16.4883 19.4852 16.5047C17.2812 16.5102 15.4766 16.5375 15.4766 16.5648C15.4766 16.5867 15.5586 16.7891 15.6625 17.0133C15.925 17.5875 16.1711 18.3969 16.275 19.0203C16.3242 19.3102 16.3734 19.6055 16.3844 19.6711L16.4062 19.7914L19.95 19.8078C23.3789 19.8242 23.4937 19.8297 23.6687 19.9336C24.1938 20.2508 24.1938 20.9836 23.6687 21.3008C23.4937 21.4047 23.3789 21.4102 19.95 21.4266L16.4062 21.443L16.3844 21.5633C16.3734 21.6289 16.3187 21.9297 16.275 22.2305C16.1602 22.9141 15.8375 23.8875 15.5039 24.5602C14.8531 25.8563 14.0328 26.8516 12.857 27.7703L12.5672 28L19.3648 27.9891L26.168 27.9727L26.5508 27.7867C27.0539 27.5406 27.4859 27.1086 27.732 26.6055L27.918 26.2227L27.9344 16.6687L27.9453 7.11484L24.7078 7.09844C21.4812 7.08203 21.4648 7.08203 21.2734 6.96172C21.1695 6.89609 21.0328 6.75937 20.9727 6.66094C20.8687 6.48594 20.8633 6.37109 20.8469 3.2375L20.8305 0H14.6945C8.77734 0.00546837 8.54766 0.00546837 8.26328 0.109375ZM23.6797 10.1008C23.9312 10.2539 24.0625 10.4891 24.0625 10.7734C24.0625 11.0578 23.9312 11.293 23.6797 11.4461L23.4883 11.5664H17.2812C11.1727 11.5664 11.0687 11.5664 10.8937 11.457C10.6477 11.3094 10.5 11.0578 10.5 10.7789C10.5 10.3797 10.7297 10.1008 11.1289 10.0023C11.2164 9.98047 14.0383 9.96953 17.3906 9.96953L23.4883 9.98047L23.6797 10.1008Z" fill="white"/>
<path d="M22.4766 2.95312V5.46875H25.0031H27.5352L25.0195 2.95312C23.6359 1.56953 22.4984 0.4375 22.493 0.4375C22.482 0.4375 22.4766 1.56953 22.4766 2.95312Z" fill="white"/>
<path d="M6.13057 13.3221C3.14463 13.8252 0.661816 16.3135 0.142285 19.3322C0.0274414 19.9775 0.0274414 21.2572 0.142285 21.9025C0.667285 24.9486 3.15557 27.426 6.17979 27.9182C6.84697 28.0221 8.02822 28.0221 8.69541 27.9182C11.7306 27.426 14.2462 24.9104 14.7384 21.8752C14.8423 21.208 14.8423 20.0268 14.7384 19.3596C14.2462 16.3244 11.7306 13.8088 8.69541 13.3166C8.05557 13.2127 6.75947 13.2182 6.13057 13.3221ZM7.84229 16.1275C8.0665 16.2752 8.19228 16.4994 8.23604 16.8275C8.26885 17.1119 8.27432 17.1174 8.55322 17.2432C9.18213 17.533 9.57041 18.1018 9.57041 18.7361C9.57041 19.026 9.54854 19.1025 9.42822 19.2502C9.06728 19.6713 8.58603 19.6877 8.20869 19.283C8.1376 19.2064 8.06104 19.0479 8.04463 18.9385L8.01182 18.7307L7.44853 18.7143L6.89072 18.6979V19.2393V19.7807L7.56885 19.808C8.1376 19.8354 8.29619 19.8627 8.54228 19.9721C8.96338 20.1689 9.21494 20.4096 9.41728 20.8252C9.59775 21.1861 9.59775 21.1971 9.59775 21.9846C9.59775 22.7229 9.58682 22.7994 9.45557 23.0783C9.25322 23.5104 9.0126 23.7619 8.61338 23.9588L8.26885 24.1283L8.23604 24.4127C8.17041 24.9158 7.8751 25.2111 7.4376 25.2111C7.0001 25.2111 6.70478 24.9158 6.63916 24.4072C6.60635 24.1229 6.60088 24.1174 6.32197 23.9916C5.69307 23.7018 5.30479 23.133 5.30479 22.4986C5.30479 22.2088 5.32666 22.1322 5.44697 21.9846C5.80791 21.5635 6.28916 21.5471 6.6665 21.9518C6.7376 22.0283 6.81416 22.1869 6.83057 22.2963L6.86338 22.5041L7.42666 22.5205L7.98447 22.5369V21.9955V21.4541L7.30635 21.4268C6.7376 21.3994 6.579 21.3721 6.33291 21.2627C5.91182 21.0658 5.66025 20.8252 5.45791 20.4096C5.27744 20.0486 5.27744 20.0377 5.27744 19.2502C5.27744 18.4627 5.27744 18.4518 5.45791 18.0908C5.66025 17.6807 5.91182 17.4346 6.32197 17.2432C6.59541 17.1174 6.60635 17.1064 6.63916 16.833C6.68838 16.4721 6.78682 16.2807 7.01103 16.1385C7.24072 15.9908 7.629 15.9854 7.84229 16.1275Z" fill="white"/>
</g>
<defs>
<clipPath id="clip0_4846_798">
<rect width="28" height="28" fill="white"/>
</clipPath>
</defs>
</svg>
