<svg width="32" height="32" viewBox="0 0 32 32" fill="none" xmlns="http://www.w3.org/2000/svg">
<path d="M7.09355 3.1125C6.2248 3.4125 5.3873 4.20625 5.21855 4.89375L5.1748 5.0625H16.0248C23.9311 5.0625 26.8748 5.04375 26.8748 4.99375C26.8748 4.8375 26.4686 4.18125 26.2123 3.90625C25.8498 3.53125 25.4373 3.275 24.9436 3.125C24.5623 3.00625 24.3248 3 15.9748 3C8.0123 3.00625 7.38105 3.0125 7.09355 3.1125Z" fill="white"/>
<path d="M3.0624 7.14391C1.93115 7.53141 1.1499 8.46266 0.999902 9.62516C0.918652 10.2502 0.918652 25.8064 0.999902 26.4377C1.11865 27.3502 1.74365 28.2689 2.5374 28.7002C3.2499 29.0877 2.40615 29.0627 16.0312 29.0627C29.7124 29.0627 28.8312 29.0877 29.5374 28.6877C29.9687 28.4377 30.5062 27.8877 30.7124 27.4752C31.0749 26.7564 31.0624 27.2002 31.0624 18.0314C31.0624 10.6314 31.0499 9.54391 30.9687 9.21891C30.7124 8.24391 29.9187 7.42516 28.9437 7.12516C28.5562 7.00016 28.2999 7.00016 16.0062 7.00016L3.46865 7.00641L3.0624 7.14391ZM16.5374 11.1877C16.6499 11.2627 16.7999 11.4377 16.8687 11.5877C16.9999 11.8502 16.9999 11.9252 16.9999 16.7377C16.9999 19.4252 17.0187 21.6252 17.0499 21.6252C17.0749 21.6252 17.6562 21.0627 18.3437 20.3752C19.6749 19.0439 19.8187 18.9377 20.2812 19.0252C20.5624 19.0814 20.9687 19.4689 21.0312 19.7502C21.1437 20.2564 21.1499 20.2439 18.7624 22.6439C16.3812 25.0314 16.3374 25.0627 15.8312 24.9752C15.6249 24.9314 15.3312 24.6689 13.4187 22.7627C12.2187 21.5689 11.1999 20.5189 11.1499 20.4252C10.8812 19.9127 11.2312 19.2002 11.8062 19.0877C12.2874 18.9877 12.3874 19.0564 13.7187 20.3814C14.4062 21.0627 14.9937 21.6252 15.0187 21.6252C15.0437 21.6252 15.0624 19.4127 15.0624 16.7127C15.0624 11.2377 15.0374 11.5252 15.4937 11.2127C15.7812 11.0189 16.2374 11.0064 16.5374 11.1877Z" fill="white"/>
</svg>
