<svg width="36" height="37" viewBox="0 0 36 37" fill="none" xmlns="http://www.w3.org/2000/svg">
<g clip-path="url(#clip0_179_3784)">
<path d="M16.7215 0.343018H22.6081V27.5905C19.5883 28.1643 17.3712 28.3935 14.9634 28.3935C7.77722 28.3932 4.03125 25.1448 4.03125 18.914C4.03125 12.9126 8.00672 9.01396 14.1605 9.01396C15.1162 9.01396 15.8423 9.09046 16.7215 9.31967V0.343018ZM16.7215 14.0582C16.0336 13.829 15.4601 13.7527 14.7339 13.7527C11.7527 13.7527 10.0323 15.5873 10.0323 18.7981C10.0323 21.9326 11.6762 23.6525 14.696 23.6525C15.3454 23.6525 15.8806 23.6142 16.7215 23.5V14.0582Z" fill="#2BA977"/>
<path d="M31.9709 9.43333V23.0793C31.9709 27.781 31.6266 30.036 30.5947 31.9854C29.639 33.8588 28.3776 35.0434 25.7786 36.343L20.3125 33.744C22.9118 32.5206 24.1729 31.451 24.9756 29.8065C25.8166 28.1249 26.0846 26.1756 26.0846 21.0535V9.43333H31.9709ZM26.0843 0.374268H31.9709V6.41383H26.0843V0.374268Z" fill="#2BA977"/>
</g>
<defs>
<clipPath id="clip0_179_3784">
<rect width="36" height="36" fill="white" transform="translate(0 0.343018)"/>
</clipPath>
</defs>
</svg>
