<svg width="329" height="295" viewBox="0 0 329 295" fill="none" xmlns="http://www.w3.org/2000/svg">
<g clip-path="url(#clip0_4490_364)">
<path d="M104.869 0.454293C100.345 1.23821 96.1503 4.16758 94.5464 7.63331C93.6005 9.69625 93.5183 14.5235 94.3819 16.6277C95.6568 19.7221 97.9598 21.62 106.308 26.3648C113.094 30.2844 115.15 32.5536 115.15 36.2669C115.15 38.4536 114.533 39.9389 112.97 41.5893C109.804 44.89 101.085 45.0137 95.4511 41.8368C94.4641 41.3005 93.6005 40.8466 93.5183 40.8466C93.436 40.8466 93.3538 41.9606 93.3538 43.2809V45.7151L96.1503 46.7053C98.4944 47.5305 99.7281 47.6543 104.458 47.6543C109.722 47.6543 110.133 47.5718 112.6 46.4578C117.083 44.3536 119.345 41.0529 119.427 36.3081C119.509 30.5319 116.877 27.355 107.624 22.1151C104.499 20.341 101.209 18.1956 100.345 17.3704C96.6026 13.7809 97.4251 7.92213 101.99 5.36408C103.512 4.53891 104.54 4.33261 107.748 4.20884C111.531 4.0438 113.258 4.37387 116.918 5.98296C117.576 6.27178 117.659 6.06548 117.535 3.87877L117.412 1.48576L115.726 0.990656C113.258 0.289258 107.501 0.000446521 104.869 0.454293Z" fill="#333568"/>
<path d="M63.1679 4.62118C62.3454 6.72537 58.4797 16.9163 54.5317 27.231C50.6248 37.5457 47.2526 46.3338 47.0881 46.7051C46.8413 47.3652 47.0881 47.4478 49.2266 47.4478H51.6529L54.1204 40.5163L56.6291 33.6261H66.6224H76.5747L79.1244 40.4338L81.6331 47.2415L84.0594 47.3652C85.4577 47.4478 86.4036 47.324 86.3213 47.0764C86.2391 46.8701 82.2911 36.3904 77.5206 23.7652L68.8843 0.825372H66.7458H64.6484L63.1679 4.62118ZM67.0337 6.84915C67.0337 7.22048 68.8021 12.3778 70.9406 18.2366C73.0791 24.1366 74.8474 29.0876 74.8474 29.3352C74.8474 29.5415 71.4752 29.7065 66.6224 29.7065C61.6874 29.7065 58.3974 29.5415 58.3974 29.2939C58.3974 29.0876 60.1658 24.054 62.3043 18.0715C64.4428 12.1303 66.2112 7.01418 66.2112 6.72537C66.2112 6.43656 66.4168 6.18901 66.6224 6.18901C66.8692 6.18901 67.0337 6.47782 67.0337 6.84915Z" fill="#333568"/>
<path d="M130.777 24.0953V47.4478H132.834H134.89V38.3708V29.2939H138.715C146.199 29.2939 151.052 27.6436 154.178 24.0953C156.768 21.1659 157.632 18.3603 157.426 13.6156C157.303 10.2324 157.097 9.40719 156.069 7.46803C154.671 4.90999 152.162 2.88831 149.078 1.81559C147.474 1.27922 145.171 1.07293 138.92 0.907894L130.777 0.742859V24.0953ZM146.94 5.52887C151.093 6.76664 153.149 9.69601 153.149 14.4408C153.149 17.7827 152.45 19.8869 150.641 21.9086C148.42 24.3841 145.747 25.168 139.825 25.168H134.89V15.0596V4.95125H139.948C143.115 4.95125 145.747 5.15754 146.94 5.52887Z" fill="#333568"/>
<path d="M177.66 24.1781V47.4893L179.84 47.3655L181.978 47.2417V27.3137C181.978 13.9459 182.101 7.59206 182.389 8.00464C182.636 8.29345 188.805 17.3291 196.166 28.0151L209.532 47.448H211.711H213.85V24.1368V0.825622H211.794H209.737L209.696 20.7123C209.696 36.3081 209.573 40.4753 209.203 39.8976C208.915 39.4438 202.787 30.4907 195.59 19.9697L182.43 0.825622H180.045H177.66V24.1781Z" fill="#333568"/>
<path d="M227.01 24.1366V47.4478H238.731H250.451V45.3848V43.3219H240.787H231.123L231.205 34.5338L231.328 25.7869L239.759 25.5806L248.189 25.3743L248.231 23.6002L248.272 21.8673H239.677H231.123V13.4093V4.95125H240.376H249.629V2.88831V0.825372H238.319H227.01V24.1366Z" fill="#333568"/>
<path d="M256.291 2.76453L256.414 4.74495L263.118 4.86873L269.78 4.95125V26.1995V47.4478H271.836H273.892V26.1995V4.95125L280.555 4.86873L287.258 4.74495L287.217 2.88831L287.176 1.03167L271.672 0.90789L256.168 0.825372L256.291 2.76453Z" fill="#333568"/>
<path d="M161.416 42.703C159.4 44.6834 160.758 47.8604 163.554 47.8604C165.076 47.8604 166.556 46.2925 166.556 44.6834C166.556 43.3631 164.829 41.6715 163.472 41.6715C162.896 41.6715 161.95 42.1254 161.416 42.703Z" fill="#333568"/>
<path d="M96.2324 78.2681C60.4948 81.9401 29.4454 102.693 13.1599 133.802C6.90894 145.726 2.79644 158.681 0.986938 172.049C0.123313 178.279 0.041063 192.885 0.781313 199.28C3.61894 223.581 13.6123 245.118 30.0212 262.158C64.6896 298.177 119.797 305.274 162.608 279.157C165.035 277.672 168.736 275.155 170.833 273.587C175.521 270.039 182.184 264.18 182.184 263.561C182.184 263.314 180.456 261.374 178.359 259.229L174.534 255.309L172.519 257.249C158.084 270.905 139.208 279.858 119.55 282.416C113.464 283.2 101.167 283.2 95.4099 282.458C77.8084 280.065 61.3996 273.051 47.7049 262.076C31.8718 249.327 20.3979 231.421 15.3807 211.493C12.0907 198.414 11.5149 181.167 13.9824 167.057C19.8633 133.06 44.7439 104.797 78.4253 93.9051C95.6156 88.3765 115.109 88.0464 132.998 93.08C146.981 97.0408 161.128 105.004 172.108 115.195L174.576 117.464L178.441 113.379L182.307 109.295L180.292 107.232C175.11 101.868 164.788 94.4828 156.275 89.9856C144.883 84.003 131.148 79.7946 118.358 78.4331C114.698 78.0205 99.6458 77.8967 96.2324 78.2681Z" fill="#333568"/>
<path d="M279.609 136.938C253.371 142.673 238.36 171.348 244.529 203.983C248.395 224.283 260.774 237.609 278.786 240.745C282.858 241.487 292.604 241.57 297.21 240.91C305.189 239.796 313.043 237.155 318.924 233.566L322.214 231.544L322.42 225.314C322.543 221.89 322.584 219.084 322.543 219.084C322.502 219.084 320.939 220.115 319.089 221.353C312.509 225.85 305.435 228.862 298.362 230.059C293.221 230.966 284.338 230.636 280.061 229.399C269.574 226.345 262.131 218.713 258.553 207.284C257.401 203.612 256.209 196.433 256.209 193.132V191.028H292.687H329.123L328.877 183.89C328.424 172.008 326.903 164.664 323.448 157.32C321.268 152.657 319.706 150.306 316.498 146.964C312.098 142.301 307.492 139.578 300.788 137.557C297.58 136.608 296.264 136.443 290.137 136.319C284.42 136.195 282.488 136.319 279.609 136.938ZM294.784 147.541C303.667 149.357 310.124 155.298 313.455 164.705C314.73 168.336 315.84 174.359 315.84 177.701V179.888H286.189H256.538L256.826 177.99C258.1 169.408 262.213 160.662 267.436 155.422C274.427 148.408 284.667 145.478 294.784 147.541Z" fill="#333568"/>
<path d="M216.729 137.185C211.177 138.712 206.118 142.095 202.335 146.84C200.238 149.439 197.153 155.133 196.207 158.104C195.919 158.97 195.508 159.671 195.303 159.671C195.097 159.671 194.932 155.215 194.932 148.944V138.217H188.764H182.595V188.759V239.301H188.723H194.891L195.056 211.121C195.179 186.985 195.303 182.364 195.919 178.733C198.675 162.106 205.748 151.337 215.659 148.697C220.142 147.5 227.709 148.243 231.04 150.223C231.78 150.636 232.438 151.007 232.48 151.007C232.521 151.007 232.521 148.078 232.48 144.529L232.397 138.052L230.835 137.474C228.449 136.608 219.525 136.401 216.729 137.185Z" fill="#333568"/>
<rect x="68.1647" y="147.603" width="72.7913" height="81.0734" rx="36.3956" fill="#01BFE1"/>
</g>
<defs>
<clipPath id="clip0_4490_364">
<rect width="329" height="295" fill="white"/>
</clipPath>
</defs>
</svg>
