<svg width="38" height="43" viewBox="0 0 38 43" fill="none" xmlns="http://www.w3.org/2000/svg">
<path d="M36.1304 9.41941L20.6276 0.417656C19.6499 -0.139219 18.3769 -0.139219 17.3914 0.417656L1.72301 9.41941C0.714023 9.99984 0 11.0907 0 12.2576V30.2372C0 31.404 0.732656 32.4953 1.74164 33.0789L5.88129 35.4301C7.85988 36.4046 8.55914 36.4046 9.45949 36.4046C12.3891 36.4046 14.0625 34.6331 14.0625 31.5432V13.7929C14.0625 13.5422 13.9321 13.1692 13.686 13.1692H11.7091C11.4588 13.1692 10.8984 13.5422 10.8984 13.7925V31.5429C10.8984 32.9126 9.65953 34.2756 7.34414 33.1179L3.06668 30.6524C2.91762 30.5715 2.8125 30.4088 2.8125 30.2372V12.2576C2.8125 12.0881 3.00762 11.918 3.15773 11.8311L18.7755 2.84484C18.9214 2.76223 19.1359 2.76223 19.2814 2.84484L34.7087 11.829C34.8564 11.918 34.8043 12.0829 34.8043 12.2576V30.2372C34.8043 30.4088 34.8687 30.5757 34.7228 30.6584L19.2238 39.6499C19.0909 39.7297 18.926 39.7297 18.7805 39.6499L14.8054 37.2772C14.6855 37.2076 14.5431 37.1827 14.4281 37.247C13.3221 37.8738 13.1182 37.9571 12.0807 38.3168C11.8255 38.4057 11.449 38.5601 12.2249 38.995L17.4273 42.0725C17.924 42.3594 18.4874 42.5105 19.061 42.5106C19.6383 42.5106 20.2036 42.3608 20.7018 42.0725L36.1301 33.0789C37.1391 32.4911 37.6172 31.404 37.6172 30.2372V12.2576C37.6172 11.0907 37.1391 10.0027 36.1304 9.41941ZM23.8746 27.3881C19.7522 27.3881 18.8441 26.2508 18.5414 24.2009C18.5063 23.9801 18.3189 23.7161 18.0942 23.7161H16.0794C15.8302 23.7161 15.6298 24.0184 15.6298 24.2666C15.6298 26.8914 17.0568 30.0716 23.875 30.0716C28.8105 30.0716 31.6403 28.1538 31.6403 24.7598C31.6403 21.3947 29.3667 20.5116 24.5802 19.878C19.742 19.2386 19.2505 18.9155 19.2505 17.782C19.2505 16.8476 19.6668 15.6013 23.2492 15.6013C26.4502 15.6013 27.63 16.2882 28.1155 18.4458C28.157 18.6486 28.3423 18.7942 28.5514 18.7942H30.5743C30.6988 18.7942 30.8176 18.7439 30.9048 18.655C30.9892 18.5593 31.0338 18.4395 31.0226 18.3108C30.7093 14.5955 28.241 12.864 23.2488 12.864C18.8082 12.864 16.1592 14.7393 16.1592 17.8826C16.1592 21.292 18.7949 22.2342 23.0576 22.6557C28.157 23.1557 28.5536 23.901 28.5536 24.904C28.5536 26.646 27.155 27.3881 23.8746 27.3881Z" fill="#83CD29"/>
</svg>
