<svg width="46" height="46" viewBox="0 0 46 46" fill="none" xmlns="http://www.w3.org/2000/svg">
<path d="M21.5264 0.37002C21.4296 0.378816 21.1217 0.409603 20.8446 0.431594C14.4531 1.00776 8.46628 4.45593 4.67449 9.75574C2.56305 12.7025 1.21261 16.0451 0.702346 19.5857C0.521994 20.8216 0.5 21.1866 0.5 22.8623C0.5 24.538 0.521994 24.9031 0.702346 26.139C1.92522 34.5879 7.93842 41.6865 16.0938 44.3166C17.5543 44.7872 19.0938 45.1083 20.8446 45.3018C21.5264 45.3766 24.4736 45.3766 25.1554 45.3018C28.1774 44.9676 30.7375 44.2199 33.2625 42.9312C33.6496 42.7333 33.7243 42.6805 33.6716 42.6365C33.6364 42.6101 31.9868 40.3979 30.0073 37.7238L26.4091 32.8638L21.9003 26.1917C19.4194 22.5237 17.3783 19.5241 17.3607 19.5241C17.3431 19.5197 17.3255 22.4841 17.3167 26.1038C17.3035 32.4416 17.2991 32.6966 17.2199 32.8462C17.1056 33.0617 17.0176 33.1497 16.8328 33.2464C16.6921 33.3168 16.5689 33.33 15.9047 33.33H15.1437L14.9413 33.2024C14.8094 33.1189 14.7126 33.0089 14.6466 32.8814L14.5543 32.6835L14.5631 23.8651L14.5762 15.0423L14.7126 14.8708C14.783 14.7785 14.9326 14.6597 15.0381 14.6025C15.2185 14.5146 15.2889 14.5058 16.0499 14.5058C16.9472 14.5058 17.0968 14.541 17.3299 14.7961C17.3959 14.8664 19.8372 18.5433 22.7581 22.9723C25.6789 27.4012 29.673 33.4487 31.6349 36.4175L35.1979 41.8141L35.3783 41.6953C36.9751 40.6574 38.6642 39.1796 40.0015 37.6402C42.8475 34.3724 44.6818 30.3876 45.2977 26.139C45.478 24.9031 45.5 24.538 45.5 22.8623C45.5 21.1866 45.478 20.8216 45.2977 19.5857C44.0748 11.1368 38.0616 4.0381 29.9062 1.40799C28.4677 0.941783 26.937 0.620716 25.2214 0.427196C24.7991 0.383214 21.8915 0.334834 21.5264 0.37002ZM30.7375 13.978C30.9487 14.0835 31.1202 14.2859 31.1818 14.497C31.217 14.6113 31.2258 17.0567 31.217 22.5676L31.2038 30.4756L29.8094 28.338L28.4106 26.2005V20.4521C28.4106 16.7356 28.4282 14.6465 28.4545 14.5454C28.5249 14.2991 28.6789 14.1055 28.89 13.9912C29.0704 13.8988 29.1364 13.89 29.827 13.89C30.478 13.89 30.5924 13.8988 30.7375 13.978Z" fill="black"/>
</svg>
