<svg width="24" height="25" viewBox="0 0 24 25" fill="none" xmlns="http://www.w3.org/2000/svg">
<g clip-path="url(#clip0_3807_609)">
<path d="M12.0002 24.9716C18.6018 24.9716 23.9535 19.6199 23.9535 13.0182C23.9535 6.41662 18.6018 1.06494 12.0002 1.06494C5.39855 1.06494 0.046875 6.41662 0.046875 13.0182C0.046875 19.6199 5.39855 24.9716 12.0002 24.9716Z" fill="#1A171B"/>
<path d="M17.2023 5.48176C15.9897 5.52405 14.9312 6.19234 14.1433 7.11697C13.2709 8.13061 12.6905 9.33293 12.2724 10.5603C11.5243 9.94715 10.9472 9.15345 9.74709 8.80735C8.81952 8.54107 7.84523 8.65104 6.94928 9.31859C6.52485 9.63562 6.23245 10.1149 6.09343 10.5654C5.73336 11.7361 6.47189 12.7781 6.80732 13.1521L7.5407 13.9381C7.69186 14.0922 8.05598 14.4942 7.87796 15.0705C7.68561 15.6972 6.93016 16.1029 6.15522 15.8638C5.80912 15.7583 5.31187 15.5005 5.42331 15.1375C5.46928 14.9889 5.57557 14.8778 5.63258 14.7494C5.68481 14.6391 5.70982 14.5563 5.72563 14.5078C5.86723 14.0455 5.67377 13.4441 5.17872 13.2915C4.71677 13.1499 4.24416 13.2621 4.061 13.8568C3.85319 14.5324 4.17648 15.7587 5.90843 16.2927C7.93755 16.9161 9.65404 15.8113 9.89752 14.3702C10.0509 13.4677 9.64338 12.7972 8.89675 11.9347L8.28842 11.262C7.91989 10.8938 7.79337 10.2664 8.17477 9.78421C8.49659 9.37743 8.95487 9.20383 9.70553 9.40796C10.8012 9.7055 11.2896 10.4657 12.1047 11.0788C11.7681 12.1826 11.5482 13.2904 11.3492 14.2838L11.2278 15.0245C10.6452 18.0802 10.2006 19.7581 9.04497 20.7213C8.81216 20.8868 8.47931 21.1347 7.97764 21.152C7.71466 21.1601 7.6297 20.9791 7.62603 20.9004C7.61977 20.7158 7.77535 20.6312 7.8787 20.5481C8.03317 20.4638 8.26672 20.3241 8.25091 19.8765C8.23399 19.3476 7.79595 18.889 7.16261 18.9099C6.68815 18.9261 5.96507 19.3726 5.99228 20.1898C6.0206 21.0339 6.80732 21.6665 7.99345 21.6264C8.62753 21.6047 10.0435 21.3466 11.4389 19.6878C13.0631 17.7863 13.5174 15.6064 13.859 14.0109L14.2404 11.9045C14.4523 11.9299 14.6788 11.9468 14.9253 11.9527C16.9481 11.9954 17.9599 10.9475 17.975 10.1855C17.9849 9.72426 17.6723 9.2704 17.2346 9.2807C16.9213 9.28953 16.5277 9.49807 16.4332 9.93133C16.3409 10.3565 17.0769 10.7401 16.5016 11.1127C16.093 11.3771 15.3604 11.5636 14.3287 11.4121L14.5163 10.3753C14.8992 8.40903 15.3714 5.99042 17.1629 5.93157C17.2935 5.92495 17.7713 5.93745 17.7823 6.25339C17.7856 6.35895 17.7595 6.3858 17.6359 6.62744C17.5101 6.81575 17.4627 6.9761 17.4686 7.16037C17.4858 7.66241 17.8676 7.99232 18.4197 7.97246C19.1589 7.94855 19.3715 7.22878 19.3594 6.85915C19.3296 5.99078 18.4142 5.44204 17.2023 5.48176Z" fill="white"/>
</g>
<defs>
<clipPath id="clip0_3807_609">
<rect width="24" height="24" fill="white" transform="translate(0 0.987793)"/>
</clipPath>
</defs>
</svg>
