<svg width="46" height="46" viewBox="0 0 46 46" fill="none" xmlns="http://www.w3.org/2000/svg">
<g clip-path="url(#clip0_3807_600)">
<path d="M22.9999 45.3276C35.3779 45.3276 45.4123 35.2932 45.4123 22.9151C45.4123 10.5371 35.3779 0.502686 22.9999 0.502686C10.6218 0.502686 0.587402 10.5371 0.587402 22.9151C0.587402 35.2932 10.6218 45.3276 22.9999 45.3276Z" fill="#1A171B"/>
<path d="M32.754 8.78431C30.4803 8.86361 28.4956 10.1166 27.0184 11.8503C25.3827 13.7509 24.2945 16.0053 23.5104 18.3065C22.1077 17.1569 21.0257 15.6687 18.7755 15.0198C17.0363 14.5205 15.2095 14.7267 13.5296 15.9784C12.7338 16.5728 12.1855 17.4714 11.9249 18.3162C11.2497 20.5112 12.6345 22.4649 13.2634 23.1662L14.6385 24.6399C14.9219 24.9289 15.6047 25.6826 15.2709 26.7632C14.9102 27.9383 13.4937 28.699 12.0407 28.2507C11.3918 28.0528 10.4594 27.5694 10.6684 26.8887C10.7546 26.6101 10.9539 26.4019 11.0608 26.1612C11.1587 25.9543 11.2056 25.7992 11.2353 25.7081C11.5008 24.8413 11.138 23.7138 10.2098 23.4276C9.34365 23.1621 8.45749 23.3724 8.11407 24.4875C7.72443 25.7543 8.3306 28.0535 11.578 29.0548C15.3826 30.2237 18.601 28.1521 19.0575 25.4502C19.3451 23.7579 18.581 22.5007 17.1811 20.8836L16.0405 19.6223C15.3495 18.932 15.1123 17.7555 15.8274 16.8514C16.4308 16.0887 17.2901 15.7632 18.6976 16.1459C20.7519 16.7038 21.6677 18.1293 23.1959 19.2789C22.5649 21.3484 22.1525 23.4255 21.7795 25.2881L21.5519 26.677C20.4595 32.4063 19.6258 35.5524 17.459 37.3585C17.0225 37.6688 16.3984 38.1336 15.4578 38.166C14.9647 38.1812 14.8054 37.8419 14.7985 37.6943C14.7868 37.3481 15.0785 37.1895 15.2723 37.0336C15.5619 36.8757 15.9998 36.6137 15.9701 35.7744C15.9384 34.7827 15.1171 33.9228 13.9296 33.9621C13.04 33.9925 11.6842 34.8296 11.7352 36.362C11.7883 37.9446 13.2634 39.1308 15.4874 39.0556C16.6763 39.0149 19.3313 38.5308 21.9477 35.4206C24.9931 31.8553 25.8447 27.768 26.4854 24.7765L27.2005 20.827C27.5977 20.8746 28.0225 20.9063 28.4846 20.9174C32.2774 20.9974 34.1746 19.0327 34.2028 17.6038C34.2215 16.739 33.6353 15.888 32.8147 15.9073C32.2271 15.9239 31.4892 16.3149 31.312 17.1273C31.1389 17.9244 32.5188 18.6437 31.4403 19.3423C30.6741 19.8381 29.3004 20.1878 27.366 19.9036L27.7177 17.9596C28.4356 14.2729 29.3211 9.73804 32.6802 9.62771C32.925 9.61529 33.8208 9.63874 33.8415 10.2311C33.8477 10.429 33.7987 10.4794 33.567 10.9325C33.3312 11.2855 33.2422 11.5862 33.2533 11.9317C33.2857 12.873 34.0015 13.4916 35.0366 13.4544C36.4227 13.4095 36.8213 12.06 36.7986 11.3669C36.7427 9.73873 35.0262 8.70983 32.754 8.78431Z" fill="white"/>
</g>
<defs>
<clipPath id="clip0_3807_600">
<rect width="45" height="45" fill="white" transform="translate(0.5 0.35791)"/>
</clipPath>
</defs>
</svg>
