<svg width="18" height="18" viewBox="0 0 18 18" fill="none" xmlns="http://www.w3.org/2000/svg">
<path d="M2.6145 4.47375C2.7405 4.48875 2.8695 4.4985 3 4.5C3.5925 4.50675 4.15425 4.3665 4.5 4.125C4.84575 3.885 5.4075 3.74475 6 3.75C6.5925 3.74475 7.15425 3.885 7.5 4.125C7.84575 4.3665 8.4075 4.50675 9 4.5C9.5925 4.50675 10.1543 4.3665 10.5 4.125C10.8457 3.885 11.4075 3.74475 12 3.75C12.5925 3.74475 13.1543 3.885 13.5 4.125C13.8457 4.3665 14.4075 4.50675 15 4.5C15.1275 4.5 15.2543 4.4895 15.3773 4.4745M2.25 2.25L3.54075 9.99675C3.59916 10.347 3.77992 10.6652 4.05088 10.8946C4.32184 11.1241 4.66542 11.25 5.0205 11.25H12.9795C13.3346 11.25 13.6782 11.1241 13.9491 10.8946C14.2201 10.6652 14.4008 10.347 14.4592 9.99675L15.75 2.25M3.75 13.5H14.25M3.75 15.75H14.25" stroke="#646B72" stroke-width="1.5" stroke-linecap="round" stroke-linejoin="round"/>
</svg>
