<svg width="18" height="18" viewBox="0 0 18 18" fill="none" xmlns="http://www.w3.org/2000/svg">
<path d="M6.75001 9.00005H5.25001C5.05109 9.00005 4.86033 9.07907 4.71968 9.21972C4.57902 9.36037 4.50001 9.55114 4.50001 9.75005C4.50001 9.94896 4.57902 10.1397 4.71968 10.2804C4.86033 10.421 5.05109 10.5001 5.25001 10.5001H6.75001C6.94892 10.5001 7.13968 10.421 7.28034 10.2804C7.42099 10.1397 7.50001 9.94896 7.50001 9.75005C7.50001 9.55114 7.42099 9.36037 7.28034 9.21972C7.13968 9.07907 6.94892 9.00005 6.75001 9.00005ZM6.00001 7.50005H9.00001C9.19892 7.50005 9.38968 7.42103 9.53034 7.28038C9.67099 7.13973 9.75001 6.94896 9.75001 6.75005C9.75001 6.55114 9.67099 6.36037 9.53034 6.21972C9.38968 6.07907 9.19892 6.00005 9.00001 6.00005H6.00001C5.80109 6.00005 5.61033 6.07907 5.46968 6.21972C5.32902 6.36037 5.25001 6.55114 5.25001 6.75005C5.25001 6.94896 5.32902 7.13973 5.46968 7.28038C5.61033 7.42103 5.80109 7.50005 6.00001 7.50005ZM6.75001 12.0001H5.25001C5.05109 12.0001 4.86033 12.0791 4.71968 12.2197C4.57902 12.3604 4.50001 12.5511 4.50001 12.7501C4.50001 12.949 4.57902 13.1397 4.71968 13.2804C4.86033 13.421 5.05109 13.5001 5.25001 13.5001H6.75001C6.94892 13.5001 7.13968 13.421 7.28034 13.2804C7.42099 13.1397 7.50001 12.949 7.50001 12.7501C7.50001 12.5511 7.42099 12.3604 7.28034 12.2197C7.13968 12.0791 6.94892 12.0001 6.75001 12.0001ZM15.75 9.00005H13.5V2.25005C13.5005 2.11789 13.4661 1.98794 13.4003 1.87336C13.3344 1.75878 13.2395 1.66363 13.125 1.59755C13.011 1.53173 12.8817 1.49707 12.75 1.49707C12.6184 1.49707 12.489 1.53173 12.375 1.59755L10.125 2.88755L7.87501 1.59755C7.76099 1.53173 7.63166 1.49707 7.50001 1.49707C7.36835 1.49707 7.23902 1.53173 7.12501 1.59755L4.87501 2.88755L2.62501 1.59755C2.51099 1.53173 2.38166 1.49707 2.25001 1.49707C2.11835 1.49707 1.98902 1.53173 1.87501 1.59755C1.76055 1.66363 1.66559 1.75878 1.59974 1.87336C1.53389 1.98794 1.49948 2.11789 1.50001 2.25005V14.2501C1.50001 14.8468 1.73706 15.4191 2.15902 15.841C2.58097 16.263 3.15327 16.5001 3.75001 16.5001H14.25C14.8467 16.5001 15.419 16.263 15.841 15.841C16.263 15.4191 16.5 14.8468 16.5 14.2501V9.75005C16.5 9.55114 16.421 9.36037 16.2803 9.21972C16.1397 9.07907 15.9489 9.00005 15.75 9.00005ZM3.75001 15.0001C3.55109 15.0001 3.36033 14.921 3.21968 14.7804C3.07902 14.6397 3.00001 14.449 3.00001 14.2501V3.54755L4.50001 4.40255C4.61576 4.46301 4.74441 4.49459 4.87501 4.49459C5.0056 4.49459 5.13425 4.46301 5.25001 4.40255L7.50001 3.11255L9.75001 4.40255C9.86576 4.46301 9.99441 4.49459 10.125 4.49459C10.2556 4.49459 10.3843 4.46301 10.5 4.40255L12 3.54755V14.2501C12.002 14.5059 12.0477 14.7595 12.135 15.0001H3.75001ZM15 14.2501C15 14.449 14.921 14.6397 14.7803 14.7804C14.6397 14.921 14.4489 15.0001 14.25 15.0001C14.0511 15.0001 13.8603 14.921 13.7197 14.7804C13.579 14.6397 13.5 14.449 13.5 14.2501V10.5001H15V14.2501ZM10.17 12.1276C10.1282 12.0992 10.0828 12.0765 10.035 12.0601C9.99035 12.0372 9.94218 12.022 9.89251 12.0151C9.77201 11.9909 9.64744 11.9968 9.52974 12.0321C9.41204 12.0674 9.30482 12.1311 9.21751 12.2176C9.08046 12.3613 9.00277 12.5515 9.00001 12.7501C8.99881 12.8476 9.01664 12.9444 9.05251 13.0351C9.09327 13.1262 9.14905 13.2099 9.21751 13.2826C9.29041 13.3488 9.37412 13.4021 9.46501 13.4401C9.55478 13.4797 9.65185 13.5002 9.75001 13.5002C9.84816 13.5002 9.94523 13.4797 10.035 13.4401C10.1259 13.4021 10.2096 13.3488 10.2825 13.2826C10.352 13.2125 10.407 13.1294 10.4443 13.038C10.4817 12.9466 10.5006 12.8488 10.5 12.7501C10.4972 12.5515 10.4196 12.3613 10.2825 12.2176C10.2469 12.1853 10.2093 12.1552 10.17 12.1276ZM10.275 9.21755C10.1874 9.13227 10.0803 9.06968 9.96305 9.03524C9.84576 9.0008 9.72183 8.99555 9.60205 9.01995C9.48227 9.04435 9.37026 9.09766 9.27579 9.17524C9.18132 9.25281 9.10724 9.35231 9.06001 9.46505C9.01333 9.57868 8.99527 9.70203 9.00742 9.82426C9.01957 9.9465 9.06156 10.0639 9.1297 10.1661C9.19784 10.2683 9.29004 10.3522 9.3982 10.4104C9.50636 10.4687 9.62717 10.4994 9.75001 10.5001C9.94892 10.5001 10.1397 10.421 10.2803 10.2804C10.421 10.1397 10.5 9.94896 10.5 9.75005C10.4988 9.65204 10.4784 9.55522 10.44 9.46505C10.4039 9.37142 10.3475 9.28692 10.275 9.21755Z" fill="#646B72"/>
</svg>
