<svg width="19" height="19" viewBox="0 0 19 19" fill="none" xmlns="http://www.w3.org/2000/svg">
<path d="M7.25001 9.08501H5.75001C5.55109 9.08501 5.36033 9.16403 5.21968 9.30468C5.07902 9.44533 5.00001 9.6361 5.00001 9.83501C5.00001 10.0339 5.07902 10.2247 5.21968 10.3653C5.36033 10.506 5.55109 10.585 5.75001 10.585H7.25001C7.44892 10.585 7.63968 10.506 7.78034 10.3653C7.92099 10.2247 8.00001 10.0339 8.00001 9.83501C8.00001 9.6361 7.92099 9.44533 7.78034 9.30468C7.63968 9.16403 7.44892 9.08501 7.25001 9.08501ZM6.50001 7.58501H9.50001C9.69892 7.58501 9.88968 7.50599 10.0303 7.36534C10.171 7.22469 10.25 7.03392 10.25 6.83501C10.25 6.6361 10.171 6.44533 10.0303 6.30468C9.88968 6.16403 9.69892 6.08501 9.50001 6.08501H6.50001C6.30109 6.08501 6.11033 6.16403 5.96968 6.30468C5.82902 6.44533 5.75001 6.6361 5.75001 6.83501C5.75001 7.03392 5.82902 7.22469 5.96968 7.36534C6.11033 7.50599 6.30109 7.58501 6.50001 7.58501ZM7.25001 12.085H5.75001C5.55109 12.085 5.36033 12.164 5.21968 12.3047C5.07902 12.4453 5.00001 12.6361 5.00001 12.835C5.00001 13.0339 5.07902 13.2247 5.21968 13.3653C5.36033 13.506 5.55109 13.585 5.75001 13.585H7.25001C7.44892 13.585 7.63968 13.506 7.78034 13.3653C7.92099 13.2247 8.00001 13.0339 8.00001 12.835C8.00001 12.6361 7.92099 12.4453 7.78034 12.3047C7.63968 12.164 7.44892 12.085 7.25001 12.085ZM16.25 9.08501H14V2.33501C14.0005 2.20285 13.9661 2.0729 13.9003 1.95832C13.8344 1.84374 13.7395 1.74859 13.625 1.68251C13.511 1.61669 13.3817 1.58203 13.25 1.58203C13.1184 1.58203 12.989 1.61669 12.875 1.68251L10.625 2.97251L8.37501 1.68251C8.26099 1.61669 8.13166 1.58203 8.00001 1.58203C7.86835 1.58203 7.73902 1.61669 7.62501 1.68251L5.37501 2.97251L3.12501 1.68251C3.01099 1.61669 2.88166 1.58203 2.75001 1.58203C2.61835 1.58203 2.48902 1.61669 2.37501 1.68251C2.26055 1.74859 2.16559 1.84374 2.09974 1.95832C2.03389 2.0729 1.99948 2.20285 2.00001 2.33501V14.335C2.00001 14.9317 2.23706 15.504 2.65902 15.926C3.08097 16.348 3.65327 16.585 4.25001 16.585H14.75C15.3467 16.585 15.919 16.348 16.341 15.926C16.763 15.504 17 14.9317 17 14.335V9.83501C17 9.6361 16.921 9.44533 16.7803 9.30468C16.6397 9.16403 16.4489 9.08501 16.25 9.08501ZM4.25001 15.085C4.05109 15.085 3.86033 15.006 3.71968 14.8653C3.57902 14.7247 3.50001 14.5339 3.50001 14.335V3.63251L5.00001 4.48751C5.11576 4.54797 5.24441 4.57955 5.37501 4.57955C5.5056 4.57955 5.63425 4.54797 5.75001 4.48751L8.00001 3.19751L10.25 4.48751C10.3658 4.54797 10.4944 4.57955 10.625 4.57955C10.7556 4.57955 10.8843 4.54797 11 4.48751L12.5 3.63251V14.335C12.502 14.5909 12.5477 14.8445 12.635 15.085H4.25001ZM15.5 14.335C15.5 14.5339 15.421 14.7247 15.2803 14.8653C15.1397 15.006 14.9489 15.085 14.75 15.085C14.5511 15.085 14.3603 15.006 14.2197 14.8653C14.079 14.7247 14 14.5339 14 14.335V10.585H15.5V14.335ZM10.67 12.2125C10.6282 12.1841 10.5828 12.1614 10.535 12.145C10.4903 12.1222 10.4422 12.107 10.3925 12.1C10.272 12.0759 10.1474 12.0817 10.0297 12.117C9.91204 12.1524 9.80482 12.216 9.71751 12.3025C9.58046 12.4462 9.50277 12.6364 9.50001 12.835C9.49881 12.9325 9.51664 13.0293 9.55251 13.12C9.59327 13.2112 9.64905 13.2948 9.71751 13.3675C9.79041 13.4338 9.87412 13.487 9.96501 13.525C10.0548 13.5647 10.1519 13.5852 10.25 13.5852C10.3482 13.5852 10.4452 13.5647 10.535 13.525C10.6259 13.487 10.7096 13.4338 10.7825 13.3675C10.852 13.2974 10.907 13.2143 10.9443 13.1229C10.9817 13.0316 11.0006 12.9337 11 12.835C10.9972 12.6364 10.9196 12.4462 10.7825 12.3025C10.7469 12.2703 10.7093 12.2402 10.67 12.2125ZM10.775 9.30251C10.6874 9.21723 10.5803 9.15464 10.463 9.1202C10.3458 9.08576 10.2218 9.08052 10.102 9.10492C9.98227 9.12932 9.87026 9.18262 9.77579 9.2602C9.68132 9.33777 9.60724 9.43727 9.56001 9.55001C9.51333 9.66364 9.49527 9.78699 9.50742 9.90922C9.51957 10.0315 9.56156 10.1488 9.6297 10.251C9.69784 10.3533 9.79004 10.4372 9.8982 10.4954C10.0064 10.5536 10.1272 10.5844 10.25 10.585C10.4489 10.585 10.6397 10.506 10.7803 10.3653C10.921 10.2247 11 10.0339 11 9.83501C10.9988 9.737 10.9784 9.64018 10.94 9.55001C10.9039 9.45638 10.8475 9.37188 10.775 9.30251Z" fill="#3A3C3F"/>
</svg>
