<svg width="19" height="19" viewBox="0 0 19 19" fill="none" xmlns="http://www.w3.org/2000/svg">
<path d="M2.75 15.835V14.335C2.75 13.5393 3.06607 12.7763 3.62868 12.2136C4.19129 11.651 4.95435 11.335 5.75 11.335H8.75C9.54565 11.335 10.3087 11.651 10.8713 12.2136C11.4339 12.7763 11.75 13.5393 11.75 14.335V15.835M12.5 2.43246C13.1453 2.59769 13.7173 2.97299 14.1257 3.4992C14.5342 4.0254 14.7559 4.67259 14.7559 5.33871C14.7559 6.00484 14.5342 6.65202 14.1257 7.17823C13.7173 7.70444 13.1453 8.07974 12.5 8.24496M16.25 15.835V14.335C16.2462 13.6728 16.0234 13.0306 15.6165 12.5083C15.2095 11.986 14.6411 11.613 14 11.4475M4.25 5.33496C4.25 6.13061 4.56607 6.89367 5.12868 7.45628C5.69129 8.01889 6.45435 8.33496 7.25 8.33496C8.04565 8.33496 8.80871 8.01889 9.37132 7.45628C9.93393 6.89367 10.25 6.13061 10.25 5.33496C10.25 4.53931 9.93393 3.77625 9.37132 3.21364C8.80871 2.65103 8.04565 2.33496 7.25 2.33496C6.45435 2.33496 5.69129 2.65103 5.12868 3.21364C4.56607 3.77625 4.25 4.53931 4.25 5.33496Z" stroke="#354052" stroke-width="2" stroke-linecap="round" stroke-linejoin="round"/>
</svg>
